<?xml version="1.0" encoding="UTF-8"?>
<svg version="1.1" xmlns="http://www.w3.org/2000/svg" width="360" height="360">
<path d="M0 0 C3.86290606 3.26215311 7.35414107 6.88309746 10.3359375 10.97265625 C10.3359375 11.63265625 10.3359375 12.29265625 10.3359375 12.97265625 C10.83222656 12.53695312 11.32851562 12.10125 11.83984375 11.65234375 C13.2708225 10.39786143 14.7060389 9.14820321 16.14453125 7.90234375 C17.43229308 6.76837878 18.70386704 5.61462213 19.93359375 4.41796875 C33.51717851 -8.43606286 52.95511668 -11.65259093 70.93359375 -11.375 C82.17295194 -10.89334201 94.07482731 -7.52369027 103.3359375 -1.02734375 C104.28726563 -0.37894531 105.23859375 0.26945312 106.21875 0.9375 C124.49369418 13.96813062 133.1663203 30.4269335 137.91015625 52.10546875 C138.44840901 55.73003321 138.23937593 58.44103329 137.3359375 61.97265625 C137.9959375 62.17890625 138.6559375 62.38515625 139.3359375 62.59765625 C151.7325807 68.27945105 159.41653362 79.07932226 164.3046875 91.41796875 C168.22528205 103.28865779 167.92681583 116.68499503 162.8203125 128.07421875 C156.20090949 140.99947409 148.25438924 150.7180587 134.30699253 156.15294647 C124.67073993 159.09979795 115.89134662 159.54444564 105.88842773 159.49023438 C104.1833334 159.49566842 102.47824376 159.50279821 100.77316284 159.51147461 C96.18430304 159.52955725 91.59580691 159.52270375 87.00694156 159.50995827 C82.18040487 159.49975348 77.35389706 159.50924438 72.52735901 159.51550293 C64.42679313 159.52275703 56.32637367 159.51324991 48.22583008 159.49414062 C38.88941739 159.47236886 29.55335414 159.47943453 20.21694988 159.50144625 C12.16809318 159.51965548 4.11934106 159.52213189 -3.92952961 159.51169157 C-8.72247757 159.50548785 -13.51526179 159.50453448 -18.30819893 159.51783752 C-22.81546977 159.52947651 -27.32229424 159.52122498 -31.82951736 159.4982605 C-33.47370733 159.49301637 -35.11793551 159.49441254 -36.76210976 159.50331116 C-50.0646197 159.56861529 -62.46030103 158.32047305 -72.6640625 148.97265625 C-73.27894531 148.44800781 -73.89382812 147.92335937 -74.52734375 147.3828125 C-83.03994625 139.63579738 -86.70147544 128.83231758 -87.546875 117.5546875 C-87.58554688 116.70261719 -87.62421875 115.85054688 -87.6640625 114.97265625 C-87.70273438 114.21339844 -87.74140625 113.45414062 -87.78125 112.671875 C-87.58865929 104.48677001 -83.36626325 97.67518106 -79.56298828 90.64160156 C-78.55576274 88.77158696 -77.59824476 86.88014883 -76.6640625 84.97265625 C-77.4890625 84.14765625 -78.3140625 83.32265625 -79.1640625 82.47265625 C-89.99312185 69.8129702 -93.79185966 54.2823183 -92.86816406 37.96240234 C-91.31209044 22.79254588 -82.54451313 9.56080271 -71.17578125 -0.109375 C-49.64086417 -16.55361184 -21.8008423 -16.05078195 0 0 Z " fill="#E6E7E9" transform="translate(161.6640625,105.02734375)"/>
<path d="M0 0 C3.86290606 3.26215311 7.35414107 6.88309746 10.3359375 10.97265625 C10.3359375 11.63265625 10.3359375 12.29265625 10.3359375 12.97265625 C10.83222656 12.53695312 11.32851562 12.10125 11.83984375 11.65234375 C13.2708225 10.39786143 14.7060389 9.14820321 16.14453125 7.90234375 C17.43229308 6.76837878 18.70386704 5.61462213 19.93359375 4.41796875 C33.51717851 -8.43606286 52.95511668 -11.65259093 70.93359375 -11.375 C82.17295194 -10.89334201 94.07482731 -7.52369027 103.3359375 -1.02734375 C104.28726563 -0.37894531 105.23859375 0.26945312 106.21875 0.9375 C124.49369418 13.96813062 133.1663203 30.4269335 137.91015625 52.10546875 C138.44840901 55.73003321 138.23937593 58.44103329 137.3359375 61.97265625 C137.9959375 62.17890625 138.6559375 62.38515625 139.3359375 62.59765625 C151.7325807 68.27945105 159.41653362 79.07932226 164.3046875 91.41796875 C168.22528205 103.28865779 167.92681583 116.68499503 162.8203125 128.07421875 C156.20090949 140.99947409 148.25438924 150.7180587 134.30699253 156.15294647 C124.67073993 159.09979795 115.89134662 159.54444564 105.88842773 159.49023438 C104.1833334 159.49566842 102.47824376 159.50279821 100.77316284 159.51147461 C96.18430304 159.52955725 91.59580691 159.52270375 87.00694156 159.50995827 C82.18040487 159.49975348 77.35389706 159.50924438 72.52735901 159.51550293 C64.42679313 159.52275703 56.32637367 159.51324991 48.22583008 159.49414062 C38.88941739 159.47236886 29.55335414 159.47943453 20.21694988 159.50144625 C12.16809318 159.51965548 4.11934106 159.52213189 -3.92952961 159.51169157 C-8.72247757 159.50548785 -13.51526179 159.50453448 -18.30819893 159.51783752 C-22.81546977 159.52947651 -27.32229424 159.52122498 -31.82951736 159.4982605 C-33.47370733 159.49301637 -35.11793551 159.49441254 -36.76210976 159.50331116 C-50.0646197 159.56861529 -62.46030103 158.32047305 -72.6640625 148.97265625 C-73.27894531 148.44800781 -73.89382812 147.92335937 -74.52734375 147.3828125 C-83.03994625 139.63579738 -86.70147544 128.83231758 -87.546875 117.5546875 C-87.58554688 116.70261719 -87.62421875 115.85054688 -87.6640625 114.97265625 C-87.70273438 114.21339844 -87.74140625 113.45414062 -87.78125 112.671875 C-87.58865929 104.48677001 -83.36626325 97.67518106 -79.56298828 90.64160156 C-78.55576274 88.77158696 -77.59824476 86.88014883 -76.6640625 84.97265625 C-77.4890625 84.14765625 -78.3140625 83.32265625 -79.1640625 82.47265625 C-89.99312185 69.8129702 -93.79185966 54.2823183 -92.86816406 37.96240234 C-91.31209044 22.79254588 -82.54451313 9.56080271 -71.17578125 -0.109375 C-49.64086417 -16.55361184 -21.8008423 -16.05078195 0 0 Z M25.3359375 22.97265625 C24.4696875 23.82150391 24.4696875 23.82150391 23.5859375 24.6875 C17.1108465 31.5841464 12.70042696 40.4959303 12.3359375 49.97265625 C11.3046875 49.64265625 10.2734375 49.31265625 9.2109375 48.97265625 C-2.88543718 45.99145753 -14.37700936 47.7709274 -25.0390625 53.91015625 C-28.35085309 55.93282966 -31.08486499 58.05780975 -33.6640625 60.97265625 C-33.6640625 61.63265625 -33.6640625 62.29265625 -33.6640625 62.97265625 C-34.3240625 62.97265625 -34.9840625 62.97265625 -35.6640625 62.97265625 C-43.01774516 75.68558519 -43.01774516 75.68558519 -44.6640625 89.97265625 C-45.9634375 90.01390625 -47.2628125 90.05515625 -48.6015625 90.09765625 C-55.53511006 90.8729033 -60.89653441 94.77423484 -65.5390625 99.84765625 C-70.06767733 106.50738395 -71.7779908 112.91232115 -70.6640625 120.97265625 C-68.87454237 127.16014957 -65.49909055 132.67638847 -60.6640625 136.97265625 C-60.0040625 136.97265625 -59.3440625 136.97265625 -58.6640625 136.97265625 C-58.6640625 137.63265625 -58.6640625 138.29265625 -58.6640625 138.97265625 C-53.60594469 141.43228425 -49.92693068 142.35038538 -44.20793152 142.36706543 C-43.49030099 142.37315653 -42.77267046 142.37924764 -42.03329355 142.38552332 C-39.64597352 142.40207613 -37.2591914 142.39738874 -34.87182617 142.39257812 C-33.15304514 142.39992303 -31.43426904 142.40851049 -29.71549988 142.41824341 C-25.05832285 142.44042553 -20.40132293 142.44339169 -15.74410033 142.4414959 C-11.85016642 142.44137602 -7.95626979 142.44994709 -4.06234628 142.45827341 C5.12846448 142.47749619 14.31918442 142.48039565 23.51000977 142.47363281 C32.97645366 142.46699502 42.44250761 142.48984842 51.90887243 142.52694654 C60.04925265 142.5576851 68.18950772 142.568999 76.32994479 142.56510973 C81.18611984 142.56304627 86.04199149 142.56845895 90.89811134 142.59300232 C95.46770381 142.61533525 100.03666443 142.61333749 104.6062603 142.5930748 C106.2775179 142.58967613 107.94881859 142.59470434 109.62001801 142.60905838 C122.25043548 142.71000407 131.1629751 140.62925905 140.65234375 131.7890625 C143.23083967 129.00715855 144.70308836 126.41978221 146.3359375 122.97265625 C146.9134375 121.81765625 147.4909375 120.66265625 148.0859375 119.47265625 C151.38002798 110.02959688 150.20226457 99.50867822 145.94140625 90.62890625 C141.26130501 82.88567306 134.76610902 78.11518372 126.3359375 74.97265625 C123.94074153 74.4005417 121.80291438 74.13354605 119.3359375 73.97265625 C119.6659375 72.98265625 119.9959375 71.99265625 120.3359375 70.97265625 C121.13139872 61.01131239 121.51016741 50.20655878 117.3359375 40.97265625 C116.73265625 39.5340625 116.73265625 39.5340625 116.1171875 38.06640625 C112.74737412 30.65281682 108.40055126 24.45506709 102.3359375 18.97265625 C101.6759375 18.97265625 101.0159375 18.97265625 100.3359375 18.97265625 C100.3359375 18.31265625 100.3359375 17.65265625 100.3359375 16.97265625 C76.99498884 -0.74823753 45.47455997 2.86899667 25.3359375 22.97265625 Z " fill="#929397" transform="translate(161.6640625,105.02734375)"/>
<path d="M0 0 C10.00286501 8.3970539 10.00286501 8.3970539 10.671875 13.546875 C10.3359375 15.9609375 10.3359375 15.9609375 8.3359375 18.9609375 C7.6759375 18.9609375 7.0159375 18.9609375 6.3359375 18.9609375 C6.20703125 19.52425781 6.078125 20.08757812 5.9453125 20.66796875 C4.79200659 25.00765188 3.54480637 28.71228926 0.3359375 31.9609375 C-2.87960496 32.73303103 -5.82077042 32.77520621 -9.125 32.8125 C-22.92832145 33.39144726 -36.35813344 41.0568958 -45.6640625 50.9609375 C-51.29778217 57.86642755 -55.23177143 65.18663394 -57.7890625 73.7109375 C-60.23424087 77.94924667 -62.90136598 78.89886181 -67.27734375 80.828125 C-69.98061268 82.11118227 -71.77578492 83.64350592 -73.6640625 85.9609375 C-81.8023122 82.94677094 -85.46458485 73.19451009 -88.92578125 65.9140625 C-94.58659502 53.39727614 -94.32600932 38.61425046 -89.79296875 25.7890625 C-83.42168617 9.82778712 -72.12150858 -1.49981783 -56.6640625 -9.0390625 C-38.09989127 -16.65928999 -15.70775774 -11.64102434 0 0 Z " fill="#FAB106" transform="translate(161.6640625,105.0390625)"/>
<path d="M0 0 C6.44104115 4.59918675 12.95739238 11.43409256 14.43359375 19.4609375 C11.59633813 20.40668937 9.05120117 20.72768295 6.08984375 21.00512695 C-8.86989275 22.47563277 -22.04230675 28.59939193 -32.56640625 39.4609375 C-37.34812221 45.33339111 -40.77304764 51.45167654 -43.56640625 58.4609375 C-44.14662248 59.81644267 -44.72969092 61.17073271 -45.31640625 62.5234375 C-45.72890625 63.4928125 -46.14140625 64.4621875 -46.56640625 65.4609375 C-55.35955001 58.54298866 -60.11871014 51.54756108 -62.56640625 40.4609375 C-63.8263249 29.17257545 -62.09983173 18.8217694 -55.25390625 9.5859375 C-40.68527636 -7.47753176 -19.66213799 -11.79129737 0 0 Z " fill="#FDF004" transform="translate(148.56640625,116.5390625)"/>
<path d="M0 0 C-2.61089312 8.7955426 -7.12792511 16.93677077 -11.16577148 25.14160156 C-12.18136655 27.21613331 -13.18690173 29.29561983 -14.18237305 31.37988281 C-15.6232847 34.39531318 -17.09494495 37.39386384 -18.57421875 40.390625 C-19.01303879 41.32392639 -19.45185883 42.25722778 -19.90397644 43.21881104 C-23.12141235 49.61249549 -23.12141235 49.61249549 -27.63232422 51.60205078 C-31.04309476 52.00509239 -34.02718896 52.00818102 -37.4375 51.625 C-38.48808594 51.51414062 -39.53867188 51.40328125 -40.62109375 51.2890625 C-41.40613281 51.19367188 -42.19117188 51.09828125 -43 51 C-38.28699852 38.10125912 -31.60921953 26.0205438 -25.14575195 13.93530273 C-24.79343506 13.27602783 -24.44111816 12.61675293 -24.078125 11.9375 C-23.72886963 11.29546631 -23.37961426 10.65343262 -23.01977539 9.99194336 C-21.95859772 7.98486675 -21.95859772 7.98486675 -21.07202148 5.76000977 C-20.18108797 3.67046718 -19.33700764 1.83731465 -18 0 C-14.94140625 -1.03515625 -14.94140625 -1.03515625 -11.5625 -1.0625 C-10.45003906 -1.09472656 -9.33757812 -1.12695312 -8.19140625 -1.16015625 C-5.34557831 -1.01734236 -2.76688166 -0.65681116 0 0 Z " fill="#2184E2" transform="translate(231,281)"/>
<path d="M0 0 C0 4.59014093 -1.41608384 7.54197885 -3.375 11.5625 C-3.72933105 12.30266357 -4.08366211 13.04282715 -4.44873047 13.80541992 C-7.61762067 20.35761076 -10.97905617 26.8074685 -14.41625977 33.22241211 C-16.29221993 36.72524682 -18.13626782 40.2194099 -19.79296875 43.83203125 C-20.29441406 44.91871094 -20.79585937 46.00539063 -21.3125 47.125 C-21.72113281 48.05570312 -22.12976563 48.98640625 -22.55078125 49.9453125 C-24 52 -24 52 -26.34765625 52.796875 C-28.95244019 52.99635772 -31.51234106 53.13298978 -34.125 53.125 C-35.39730469 53.12886719 -35.39730469 53.12886719 -36.6953125 53.1328125 C-39 53 -39 53 -42 52 C-40.32990495 46.27150889 -37.70169928 41.13184788 -35.02734375 35.82421875 C-34.54423233 34.85845413 -34.06112091 33.89268951 -33.56336975 32.8976593 C-32.54568958 30.86531086 -31.52607262 28.83393123 -30.50463867 26.8034668 C-28.93530215 23.68312999 -27.37245465 20.55960773 -25.81054688 17.43554688 C-24.82069104 15.46074771 -23.83046951 13.4861318 -22.83984375 11.51171875 C-22.370056 10.57325607 -21.90026825 9.6347934 -21.41624451 8.66789246 C-20.98231888 7.80642105 -20.54839325 6.94494965 -20.10131836 6.05737305 C-19.71874374 5.29603561 -19.33616913 4.53469818 -18.94200134 3.75028992 C-18 2 -18 2 -17 1 C-11.36215156 0.00073146 -5.70829302 -0.10378715 0 0 Z " fill="#2084E4" transform="translate(264,280)"/>
<path d="M0 0 C0.80179688 0.05220703 1.60359375 0.10441406 2.4296875 0.15820312 C4.41179103 0.28798371 6.39344499 0.42459735 8.375 0.5625 C3.09072205 11.95305469 -2.38983825 23.24562122 -7.97363281 34.49194336 C-8.70048623 35.95754712 -9.42525443 37.42418685 -10.14794922 38.8918457 C-11.17470202 40.97519058 -12.20929759 43.05445133 -13.24609375 45.1328125 C-13.55723618 45.76740387 -13.8683786 46.40199524 -14.18894958 47.05581665 C-16.39634 51.44817 -16.39634 51.44817 -18.625 52.5625 C-21.3485195 52.47325148 -24.03513311 52.32896668 -26.75 52.125 C-27.50410156 52.07279297 -28.25820312 52.02058594 -29.03515625 51.96679688 C-30.8987937 51.83704996 -32.76194996 51.70042512 -34.625 51.5625 C-34.03146273 47.82067088 -32.96622162 44.9407806 -31.18359375 41.60546875 C-30.68593506 40.66509766 -30.18827637 39.72472656 -29.67553711 38.75585938 C-29.14323486 37.76392578 -28.61093262 36.77199219 -28.0625 35.75 C-26.96774081 33.68152339 -25.8739951 31.61251008 -24.78125 29.54296875 C-24.24371094 28.5276709 -23.70617187 27.51237305 -23.15234375 26.46630859 C-21.0770361 22.5207029 -19.05560132 18.55015358 -17.0625 14.5625 C-16.75304443 13.94785889 -16.44358887 13.33321777 -16.12475586 12.69995117 C-14.64617599 9.73416399 -13.28299195 6.75525846 -12.03515625 3.6875 C-9.47928032 -1.97649099 -5.45335868 -0.38509919 0 0 Z " fill="#1F85E5" transform="translate(155.625,280.4375)"/>
<path d="M0 0 C-0.73298344 4.08818931 -2.68798524 7.59233488 -4.5625 11.25 C-5.29170052 12.69138912 -6.02086622 14.13279586 -6.75 15.57421875 C-7.12382812 16.30946777 -7.49765625 17.0447168 -7.8828125 17.80224609 C-9.28388207 20.55845856 -10.67870971 23.31771815 -12.06616211 26.08081055 C-12.7297407 27.40065063 -13.39721945 28.71853712 -14.06860352 30.03442383 C-15.77665204 33.41248995 -17.35574875 36.7954965 -18.77734375 40.3046875 C-19.06794678 40.99812256 -19.3585498 41.69155762 -19.65795898 42.40600586 C-20.20424977 43.72397791 -20.72506434 45.0529115 -21.21508789 46.39282227 C-21.96875 48.18359375 -21.96875 48.18359375 -24 51 C-28.83414917 52.17906077 -33.05400368 52.11892459 -38 51.5625 C-38.94875 51.46066406 -39.8975 51.35882813 -40.875 51.25390625 C-41.57625 51.17011719 -42.2775 51.08632813 -43 51 C-41.45574272 47.67126765 -39.90989008 44.34531952 -38.30883789 41.04345703 C-35.87261988 36.01787428 -33.5400519 30.96967264 -31.34664917 25.83428955 C-30.07686374 22.89502539 -28.7526803 19.98194542 -27.42041016 17.07055664 C-26.7683384 15.61400391 -26.13889017 14.14709822 -25.53320312 12.6706543 C-23.54671489 7.8527683 -21.63395228 3.78761198 -18 0 C-12.78339378 -2.03662138 -5.05855998 -2.52927999 0 0 Z " fill="#1F84E5" transform="translate(197,281)"/>
<path d="M0 0 C5.61 0 11.22 0 17 0 C17 9.9 17 19.8 17 30 C11.39 30 5.78 30 0 30 C-0.73375404 25.59747574 -1.08757669 22.47658487 -0.87890625 18.1640625 C-0.83056641 17.10058594 -0.78222656 16.03710938 -0.73242188 14.94140625 C-0.67634766 13.84699219 -0.62027344 12.75257812 -0.5625 11.625 C-0.51029297 10.50738281 -0.45808594 9.38976562 -0.40429688 8.23828125 C-0.27519421 5.49191544 -0.13836006 2.74591499 0 0 Z " fill="#F9B10D" transform="translate(118,50)"/>
<path d="M0 0 C3.20361582 0.65827722 5.76571208 1.79713209 8.625 3.375 C9.78902344 4.00535156 9.78902344 4.00535156 10.9765625 4.6484375 C13 6 13 6 15 9 C14.01 10.98 13.02 12.96 12 15 C11.34 15 10.68 15 10 15 C9.61714844 16.28777344 9.61714844 16.28777344 9.2265625 17.6015625 C7.94321828 21.15732514 6.31784652 24.13692247 4.375 27.375 C3.74335938 28.43460938 3.11171875 29.49421875 2.4609375 30.5859375 C1.73777344 31.78089844 1.73777344 31.78089844 1 33 C-2.65564909 32.31238981 -5.51867272 30.74550455 -8.75 28.9375 C-9.73484375 28.38964844 -10.7196875 27.84179688 -11.734375 27.27734375 C-12.48203125 26.85582031 -13.2296875 26.43429688 -14 26 C-13.3220342 21.97208552 -11.28569075 18.7205184 -9.25 15.25 C-8.89164063 14.63108887 -8.53328125 14.01217773 -8.1640625 13.37451172 C-5.53559171 8.85623662 -2.81790451 4.4029758 0 0 Z " fill="#FBB006" transform="translate(168,60)"/>
<path d="M0 0 C3.03656917 2.5988655 4.46163739 5.62071728 6.1875 9.1875 C6.71730469 10.27417969 7.24710938 11.36085937 7.79296875 12.48046875 C8.19128906 13.31191406 8.58960938 14.14335937 9 15 C8.10539062 15.50789062 7.21078125 16.01578125 6.2890625 16.5390625 C5.06757979 17.23414916 3.84623524 17.92947865 2.625 18.625 C1.99174805 18.98529297 1.35849609 19.34558594 0.70605469 19.71679688 C-3.95542354 22.37847974 -8.55200705 25.131713 -13.109375 27.96875 C-15 29 -15 29 -17 29 C-18.76171875 26.515625 -18.76171875 26.515625 -20.6875 23.25 C-21.33074219 22.18265625 -21.97398438 21.1153125 -22.63671875 20.015625 C-24 17 -24 17 -24.11328125 14.85546875 C-22.33122035 11.88536724 -19.47669281 10.62893747 -16.5 9.0625 C-15.87013184 8.71767578 -15.24026367 8.37285156 -14.59130859 8.01757812 C-13.32519707 7.32550184 -12.05616934 6.63873192 -10.78417969 5.95751953 C-8.38115925 4.66788541 -6.00374092 3.33376687 -3.625 2 C-2.4171795 1.33240467 -1.20907902 0.66531332 0 0 Z " fill="#F8B00B" transform="translate(60,178)"/>
<path d="M0 0 C3.51716993 1.31928086 6.65308518 2.87348391 9.86328125 4.8203125 C11.19262695 5.62275391 11.19262695 5.62275391 12.54882812 6.44140625 C13.46083984 6.99699219 14.37285156 7.55257812 15.3125 8.125 C16.24384766 8.68832031 17.17519531 9.25164062 18.13476562 9.83203125 C20.42521142 11.2180446 22.71352076 12.60745628 25 14 C23.57104531 17.68023236 21.94130103 20.94353093 19.875 24.3125 C19.33617188 25.19550781 18.79734375 26.07851562 18.2421875 26.98828125 C17.83226563 27.65214844 17.42234375 28.31601563 17 29 C12.22383196 26.62867806 7.51442564 24.13975263 2.8125 21.625 C1.4212793 20.90183594 1.4212793 20.90183594 0.00195312 20.1640625 C-0.87912109 19.6896875 -1.76019531 19.2153125 -2.66796875 18.7265625 C-3.87876099 18.08581787 -3.87876099 18.08581787 -5.11401367 17.43212891 C-7 16 -7 16 -7.8581543 14.00219727 C-8.08692374 10.77304379 -6.39716588 8.93572577 -4.625 6.3125 C-3.97789063 5.33925781 -3.33078125 4.36601563 -2.6640625 3.36328125 C-1 1 -1 1 0 0 Z " fill="#F9B109" transform="translate(44,93)"/>
<path d="M0 0 C2.92516053 1.23135329 3.46561331 2.86030606 4.86328125 5.67578125 C7.61939109 11.0611212 10.61540307 16.24465393 13.73046875 21.4296875 C15.05078125 23.86328125 15.05078125 23.86328125 15.05078125 25.86328125 C13.48958703 26.65751986 11.92676161 27.44855248 10.36328125 28.23828125 C9.49316406 28.67914063 8.62304688 29.12 7.7265625 29.57421875 C5.20229169 30.79029082 2.65628621 31.83634962 0.05078125 32.86328125 C-1.90932676 29.44762978 -3.86699449 26.03058584 -5.82421875 22.61328125 C-6.37980469 21.64519531 -6.93539062 20.67710938 -7.5078125 19.6796875 C-8.04277344 18.74511719 -8.57773438 17.81054688 -9.12890625 16.84765625 C-9.62116699 15.98881836 -10.11342773 15.12998047 -10.62060547 14.24511719 C-11.79303636 12.14327306 -12.89417124 10.02590975 -13.94921875 7.86328125 C-12.32537733 6.7158066 -10.70010819 5.57035215 -9.07421875 4.42578125 C-8.16929688 3.78769531 -7.264375 3.14960937 -6.33203125 2.4921875 C-2.43640237 -0.17088995 -2.43640237 -0.17088995 0 0 Z " fill="#FAB107" transform="translate(82.94921875,60.13671875)"/>
<path d="M0 0 C0 5.28 0 10.56 0 16 C-3.99178355 16.66529726 -7.17507127 17.12750202 -11.109375 17.1328125 C-12.48802734 17.13474609 -12.48802734 17.13474609 -13.89453125 17.13671875 C-14.83683594 17.13285156 -15.77914062 17.12898438 -16.75 17.125 C-17.70777344 17.12886719 -18.66554688 17.13273437 -19.65234375 17.13671875 C-20.56628906 17.13542969 -21.48023438 17.13414062 -22.421875 17.1328125 C-23.25299805 17.13168457 -24.08412109 17.13055664 -24.94042969 17.12939453 C-27 17 -27 17 -29 16 C-30.09058743 10.34877422 -29.91010388 5.66286862 -29 0 C-20.30354827 -2.89881724 -8.95508711 -0.98137941 0 0 Z " fill="#FDB102" transform="translate(56,142)"/>
<path d="M0 0 C0 5.28 0 10.56 0 16 C-3.99178355 16.66529726 -7.17507127 17.12750202 -11.109375 17.1328125 C-12.48802734 17.13474609 -12.48802734 17.13474609 -13.89453125 17.13671875 C-14.83683594 17.13285156 -15.77914062 17.12898438 -16.75 17.125 C-17.70777344 17.12886719 -18.66554688 17.13273437 -19.65234375 17.13671875 C-20.56628906 17.13542969 -21.48023438 17.13414062 -22.421875 17.1328125 C-23.25299805 17.13168457 -24.08412109 17.13055664 -24.94042969 17.12939453 C-27 17 -27 17 -29 16 C-29 14.02 -29 12.04 -29 10 C-28.34 10.33 -27.68 10.66 -27 11 C-27 12.32 -27 13.64 -27 15 C-19.08 15 -11.16 15 -3 15 C-3 10.38 -3 5.76 -3 1 C-11.25 1 -19.5 1 -28 1 C-27.67 3.31 -27.34 5.62 -27 8 C-27.99 8 -28.98 8 -30 8 C-29.67 5.36 -29.34 2.72 -29 0 C-20.30354827 -2.89881724 -8.95508711 -0.98137941 0 0 Z " fill="#EFB12D" transform="translate(56,142)"/>
<path d="M0 0 C0.66 0.33 1.32 0.66 2 1 C1.360625 1.515625 0.72125 2.03125 0.0625 2.5625 C-2.56285072 5.66518721 -2.55853889 8.02685001 -3 12 C-3.66 12.66 -4.32 13.32 -5 14 C-5.99 14 -6.98 14 -8 14 C-8.144375 14.5775 -8.28875 15.155 -8.4375 15.75 C-8.95833333 17.83333333 -9.47916667 19.91666667 -10 22 C-10.66 22 -11.32 22 -12 22 C-12 23.65 -12 25.3 -12 27 C-12.33 26.01 -12.66 25.02 -13 24 C-13.99 23.67 -14.98 23.34 -16 23 C-14 19 -12 15 -10 11 C-9.34 11 -8.68 11 -8 11 C-7.79375 10.113125 -7.5875 9.22625 -7.375 8.3125 C-5.61695642 4.07721318 -3.64626667 2.69506667 0 0 Z " fill="#9A947E" transform="translate(178,113)"/>
<path d="M0 0 C3.33511388 2.9901021 5.21521119 5.89498574 7 10 C7 10.66 7 11.32 7 12 C5.43880578 12.79423861 3.87598036 13.58527123 2.3125 14.375 C1.44238281 14.81585938 0.57226562 15.25671875 -0.32421875 15.7109375 C-2.84772799 16.92664268 -5.38737532 17.99260958 -8 19 C-8.66 17.35 -9.32 15.7 -10 14 C-9.34 14 -8.68 14 -8 14 C-8 14.99 -8 15.98 -8 17 C-7.01 17 -6.02 17 -5 17 C-5 16.01 -5 15.02 -5 14 C-4.01 14 -3.02 14 -2 14 C-2 13.01 -2 12.02 -2 11 C-1.34 11 -0.68 11 0 11 C-0.185625 10.113125 -0.37125 9.22625 -0.5625 8.3125 C-0.98042484 5.14821189 -0.80777742 3.05160358 0 0 Z " fill="#F4B116" transform="translate(91,74)"/>
<path d="M0 0 C0.66 0 1.32 0 2 0 C0.59948501 5.38986072 -1.25866364 10.33609552 -3.625 15.375 C-3.93050781 16.09816406 -4.23601562 16.82132812 -4.55078125 17.56640625 C-6.93516629 22.5896364 -6.93516629 22.5896364 -9.84667969 23.71166992 C-13.89748224 24.28863454 -17.94315973 24.01889453 -22 23.5625 C-22.94875 23.46066406 -23.8975 23.35882813 -24.875 23.25390625 C-25.57625 23.17011719 -26.2775 23.08632813 -27 23 C-26.34 21.35 -25.68 19.7 -25 18 C-24.67 19.32 -24.34 20.64 -24 22 C-19.05 22 -14.1 22 -9 22 C-9 20.35 -9 18.7 -9 17 C-8.39072482 14.98177598 -7.73519522 12.97583715 -7 11 C-6.01 11 -5.02 11 -4 11 C-4 9.68 -4 8.36 -4 7 C-3.34 7 -2.68 7 -2 7 C-2.33 5.68 -2.66 4.36 -3 3 C-2.01 3 -1.02 3 0 3 C0 2.01 0 1.02 0 0 Z " fill="#2C7FCA" transform="translate(181,309)"/>
<path d="M0 0 C0 1.32 0 2.64 0 4 C-3.33333333 4 -6.66666667 4 -10 4 C-11.67540664 4.64438717 -13.34183216 5.31246699 -15 6 C-15.99 6.33 -16.98 6.66 -18 7 C-18 7.99 -18 8.98 -18 10 C-18.99 10 -19.98 10 -21 10 C-19.94124926 6.59687262 -18.99097846 3.98646769 -17 1 C-15.1171875 0.48828125 -15.1171875 0.48828125 -12.875 0.3125 C-12.07964844 0.24804688 -11.28429687 0.18359375 -10.46484375 0.1171875 C-6.96759212 -0.04908437 -3.50078936 -0.06365072 0 0 Z " fill="#2881D2" transform="translate(264,280)"/>
<path d="M0 0 C4.30764815 1.56641751 8.06171464 3.68336156 12 6 C11.01 6.66 10.02 7.32 9 8 C9 7.34 9 6.68 9 6 C8.38125 6.20625 7.7625 6.4125 7.125 6.625 C6.42375 6.74875 5.7225 6.8725 5 7 C4.34 6.34 3.68 5.68 3 5 C-1.57396492 6.82585558 -1.57396492 6.82585558 -4.375 10.6875 C-4.58125 11.450625 -4.7875 12.21375 -5 13 C-5.66 13 -6.32 13 -7 13 C-7.33 13.66 -7.66 14.32 -8 15 C-7.34027755 11.46223834 -5.87564572 8.86493307 -4 5.8125 C-3.46375 4.93207031 -2.9275 4.05164063 -2.375 3.14453125 C-1 1 -1 1 0 0 Z " fill="#F2B41A" transform="translate(44,93)"/>
<path d="M0 0 C0.77730469 -0.020625 1.55460937 -0.04125 2.35546875 -0.0625 C7.76736062 -0.09888247 11.2417618 0.97035563 16.125 3.25 C17.445 3.25 18.765 3.25 20.125 3.25 C20.62 5.23 20.62 5.23 21.125 7.25 C20.568125 7.05664062 20.01125 6.86328125 19.4375 6.6640625 C7.71931334 2.66562719 -2.53981463 1.00723902 -14.875 3.25 C-14.545 2.59 -14.215 1.93 -13.875 1.25 C-9.37512899 -0.11571961 -4.66248447 0.03062387 0 0 Z " fill="#F2BA00" transform="translate(126.875,108.75)"/>
<path d="M0 0 C-1.27677281 4.2231716 -2.67214625 7.12024374 -5 11 C-10.61 10.67 -16.22 10.34 -22 10 C-21 5 -21 5 -19 3 C-19 4.32 -19 5.64 -19 7 C-16.29816945 8.35091528 -13.88191794 8.33858058 -10.875 8.5625 C-9.23144531 8.68818359 -9.23144531 8.68818359 -7.5546875 8.81640625 C-6.71164063 8.87699219 -5.86859375 8.93757813 -5 9 C-4.87625 7.700625 -4.7525 6.40125 -4.625 5.0625 C-4.4140625 2.84765625 -4.4140625 2.84765625 -4 1 C-2 0 -2 0 0 0 Z " fill="#327FCC" transform="translate(143,322)"/>
<path d="M0 0 C2.94887797 0.50842724 5.37371875 1.59306362 8 3 C7.01 3.495 7.01 3.495 6 4 C5.01 3.67 4.02 3.34 3 3 C2.3503125 4.1446875 2.3503125 4.1446875 1.6875 5.3125 C0.25510208 7.59372631 -0.93762473 9.29629869 -3 11 C-3.66 11 -4.32 11 -5 11 C-5.33 11.99 -5.66 12.98 -6 14 C-6.33 13.34 -6.66 12.68 -7 12 C-5.8203125 9.43359375 -5.8203125 9.43359375 -4.125 6.4375 C-3.57070312 5.44621094 -3.01640625 4.45492187 -2.4453125 3.43359375 C-1 1 -1 1 0 0 Z " fill="#EEAD1E" transform="translate(168,60)"/>
<path d="M0 0 C0.99 0.66 1.98 1.32 3 2 C3 3.32 3 4.64 3 6 C3.061875 6.86625 3.12375 7.7325 3.1875 8.625 C3.125625 9.40875 3.06375 10.1925 3 11 C0 13 0 13 -3 13 C-3.33 11.35 -3.66 9.7 -4 8 C-3.34 8 -2.68 8 -2 8 C-1.7834375 6.576875 -1.7834375 6.576875 -1.5625 5.125 C-1 2 -1 2 0 0 Z " fill="#1D86EC" transform="translate(213,285)"/>
<path d="M0 0 C0.66 0.33 1.32 0.66 2 1 C0.68 3.31 -0.64 5.62 -2 8 C-5.48539917 7.35455571 -8.02819057 5.89865603 -11 4 C-8.50907189 2.75453595 -7.58919267 3.2232422 -5 4 C-5 3.01 -5 2.02 -5 1 C-3.35 1.33 -1.7 1.66 0 2 C0 1.34 0 0.68 0 0 Z " fill="#EDB022" transform="translate(171,85)"/>
<path d="M0 0 C0.33 0 0.66 0 1 0 C1 1.65 1 3.3 1 5 C5.62 5 10.24 5 15 5 C15 4.34 15 3.68 15 3 C15.66 3.33 16.32 3.66 17 4 C16.01 5.485 16.01 5.485 15 7 C11.84765625 7.328125 11.84765625 7.328125 8.0625 7.25 C6.81597656 7.23453125 5.56945312 7.2190625 4.28515625 7.203125 C1 7 1 7 -2 6 C-1.34 4.02 -0.68 2.04 0 0 Z " fill="#367DBF" transform="translate(224,326)"/>
<path d="M0 0 C0.97591583 3.38317487 0.85856655 5.5657338 0 9 C-0.99 9.33 -1.98 9.66 -3 10 C-4.22520264 13.00847418 -4.22520264 13.00847418 -5 16 C-5.66 16 -6.32 16 -7 16 C-5.35433477 10.31497465 -2.70967216 5.23318364 0 0 Z " fill="#2B7DC9" transform="translate(164,311)"/>
<path d="M0 0 C0 0.33 0 0.66 0 1 C-1.30324219 1.38091797 -1.30324219 1.38091797 -2.6328125 1.76953125 C-4.36144531 2.28580078 -4.36144531 2.28580078 -6.125 2.8125 C-7.26195312 3.14894531 -8.39890625 3.48539063 -9.5703125 3.83203125 C-13.04924303 4.92352269 -13.04924303 4.92352269 -16.3046875 6.69921875 C-17.19414062 7.12847656 -18.08359375 7.55773437 -19 8 C-19.66 7.67 -20.32 7.34 -21 7 C-20.34 6.01 -19.68 5.02 -19 4 C-16.375 3.8125 -16.375 3.8125 -14 4 C-14 3.34 -14 2.68 -14 2 C-9.35150485 -0.3992233 -5.08913926 -0.19957409 0 0 Z " fill="#EEE73C" transform="translate(149,137)"/>
<path d="M0 0 C2.875 -0.125 2.875 -0.125 6 0 C6.66 0.66 7.32 1.32 8 2 C2.00325593 3.74675802 -3.27364221 4.25682842 -9.5 4.125 C-10.73363281 4.11146484 -10.73363281 4.11146484 -11.9921875 4.09765625 C-13.99492083 4.07436865 -15.99750154 4.03850959 -18 4 C-18 3.67 -18 3.34 -18 3 C-9.585 2.505 -9.585 2.505 -1 2 C-0.67 1.34 -0.34 0.68 0 0 Z " fill="#8B8C8E" transform="translate(285,260)"/>
<path d="M0 0 C0.33 1.98 0.66 3.96 1 6 C-3.455 6.495 -3.455 6.495 -8 7 C-4.5 0 -4.5 0 0 0 Z " fill="#FBB201" transform="translate(54,184)"/>
<path d="M0 0 C0.66 0.33 1.32 0.66 2 1 C0.68 3.31 -0.64 5.62 -2 8 C-5.11198065 6.50163895 -8.0534615 4.80066242 -11 3 C-8.92446352 2.4465236 -7.15634036 2 -5 2 C-4.67 2.99 -4.34 3.98 -4 5 C-3.34 5.33 -2.68 5.66 -2 6 C-2.33 4.35 -2.66 2.7 -3 1 C-2.01 0.67 -1.02 0.34 0 0 Z " fill="#EBAF27" transform="translate(63,114)"/>
<path d="M0 0 C0.66 0.33 1.32 0.66 2 1 C1.38125 1.0825 0.7625 1.165 0.125 1.25 C-0.57625 1.4975 -1.2775 1.745 -2 2 C-2.433125 2.9590625 -2.433125 2.9590625 -2.875 3.9375 C-4 6 -4 6 -7 7.3125 C-10 8 -10 8 -12 7 C-10.56542672 6.0165504 -9.12722594 5.03839079 -7.6875 4.0625 C-6.88699219 3.51722656 -6.08648437 2.97195312 -5.26171875 2.41015625 C-3 1 -3 1 0 0 Z " fill="#9D986D" transform="translate(136,141)"/>
<path d="M0 0 C0.33 0.66 0.66 1.32 1 2 C1.66 2 2.32 2 3 2 C3 2.66 3 3.32 3 4 C3.66 4.33 4.32 4.66 5 5 C3.68 6.32 2.36 7.64 1 9 C-2.875 7.25 -2.875 7.25 -4 5 C-1.525 5.99 -1.525 5.99 1 7 C1 6.01 1 5.02 1 4 C0.34 4 -0.32 4 -1 4 C-0.67 2.68 -0.34 1.36 0 0 Z " fill="#F0B020" transform="translate(87,182)"/>
<path d="M0 0 C3.0916909 2.52956528 3.90931332 5.22454612 5 9 C2.36 9.99 -0.28 10.98 -3 12 C-3 11.34 -3 10.68 -3 10 C-2.01 10 -1.02 10 0 10 C0.74926071 6.33694766 1.2380014 3.57644848 0 0 Z " fill="#EDB923" transform="translate(93,77)"/>
<path d="M0 0 C0.66 1.32 1.32 2.64 2 4 C1.01 4.495 1.01 4.495 0 5 C0.66 6.65 1.32 8.3 2 10 C0.02 10 -1.96 10 -4 10 C-2.68 6.7 -1.36 3.4 0 0 Z " fill="#287DCD" transform="translate(192,322)"/>
<path d="M0 0 C0.33 0.66 0.66 1.32 1 2 C-0.07518118 4.44332726 -1.19808566 6.76754523 -2.4375 9.125 C-2.77587891 9.78371094 -3.11425781 10.44242187 -3.46289062 11.12109375 C-4.30149926 12.75106547 -5.14984811 14.37601909 -6 16 C-7.20153575 12.02634963 -6.637386 9.84785711 -5 6 C-3.5 4.3125 -3.5 4.3125 -2 3 C-1.34 2.01 -0.68 1.02 0 0 Z " fill="#2F80CD" transform="translate(260,288)"/>
<path d="M0 0 C1.32 0 2.64 0 4 0 C2.90931332 3.77545388 2.0916909 6.47043472 -1 9 C-1.625 5.625 -1.625 5.625 -2 2 C-1.34 1.34 -0.68 0.68 0 0 Z " fill="#257DD8" transform="translate(188,292)"/>
<path d="M0 0 C3.65316671 1.24976756 4.78065836 1.67098753 7 5 C6.01 6.98 5.02 8.96 4 11 C2.5 9.6875 2.5 9.6875 1 8 C1 7.01 1 6.02 1 5 C1.66 5 2.32 5 3 5 C3.33 4.34 3.66 3.68 4 3 C3.01 3 2.02 3 1 3 C0.67 2.01 0.34 1.02 0 0 Z " fill="#EBAF1F" transform="translate(176,64)"/>
<path d="M0 0 C0.99 0.99 1.98 1.98 3 3 C2.67 3.66 2.34 4.32 2 5 C1.360625 4.814375 0.72125 4.62875 0.0625 4.4375 C-0.9584375 4.2209375 -0.9584375 4.2209375 -2 4 C-2.33 4.33 -2.66 4.66 -3 5 C-4.66617115 5.04063832 -6.33388095 5.042721 -8 5 C-5.44008376 2.98863724 -2.95409701 1.37154504 0 0 Z " fill="#ECB11A" transform="translate(60,178)"/>
<path d="M0 0 C0.33 0.99 0.66 1.98 1 3 C-1.64 4.98 -4.28 6.96 -7 9 C-7 6 -7 6 -5.46875 4.39453125 C-4.49421875 3.61142578 -4.49421875 3.61142578 -3.5 2.8125 C-2.8503125 2.28269531 -2.200625 1.75289062 -1.53125 1.20703125 C-1.0259375 0.80871094 -0.520625 0.41039062 0 0 Z " fill="#989571" transform="translate(123,149)"/>
<path d="M0 0 C1.11340257 3.34020772 1.24574643 5.67800951 0 9 C-3.0625 11.3125 -3.0625 11.3125 -6 13 C-4.58707905 8.1725201 -2.57025846 4.2837641 0 0 Z " fill="#2D7DCB" transform="translate(132,308)"/>
<path d="M0 0 C-0.7734375 0.37125 -0.7734375 0.37125 -1.5625 0.75 C-2.9817981 1.47784518 -4.38831876 2.23437502 -5.75390625 3.05859375 C-7.47048188 4.09427299 -9.23377351 5.05147096 -11 6 C-11.66 5.67 -12.32 5.34 -13 5 C-13 4.34 -13 3.68 -13 3 C-4.57142857 -0.42857143 -4.57142857 -0.42857143 0 0 Z " fill="#8A8B8E" transform="translate(212,96)"/>
<path d="M0 0 C2 2 2 2 2.125 5.125 C2.08375 6.07375 2.0425 7.0225 2 8 C-0.475 7.01 -0.475 7.01 -3 6 C-1.125 1.125 -1.125 1.125 0 0 Z " fill="#F5AB1B" transform="translate(160,74)"/>
<path d="M0 0 C0.33 0.66 0.66 1.32 1 2 C2.65 1.67 4.3 1.34 6 1 C3.53846154 5.8 3.53846154 5.8 0.8125 6.8125 C0.214375 6.874375 -0.38375 6.93625 -1 7 C-0.67 4.69 -0.34 2.38 0 0 Z " fill="#2782DD" transform="translate(125,321)"/>
<path d="M0 0 C0.66 0 1.32 0 2 0 C2 1.32 2 2.64 2 4 C1.34 4 0.68 4 0 4 C0 5.65 0 7.3 0 9 C-0.99 9 -1.98 9 -3 9 C-2.44271087 5.65626525 -1.64826111 2.96687001 0 0 Z " fill="#1A87ED" transform="translate(255,290)"/>
<path d="M0 0 C0.66 0.33 1.32 0.66 2 1 C1.21681311 4.91593446 -0.39179858 8.36406635 -2 12 C-2.33 12 -2.66 12 -3 12 C-2.49202991 7.6822542 -1.80317221 3.96697886 0 0 Z " fill="#317ABE" transform="translate(195,280)"/>
<path d="M0 0 C0.66 0.33 1.32 0.66 2 1 C1.34 1.66 0.68 2.32 0 3 C0.19890456 5.23344065 0.19890456 5.23344065 0.875 7.625 C1.07867187 8.44226563 1.28234375 9.25953125 1.4921875 10.1015625 C1.65976562 10.72804687 1.82734375 11.35453125 2 12 C-0.91227269 8.71195019 -2.49701212 6.40114397 -3 2 C-2.01 1.34 -1.02 0.68 0 0 Z " fill="#EBB322" transform="translate(39,190)"/>
<path d="M0 0 C1.17571451 3.67410785 1.07366746 7.16929183 1 11 C-1.01136276 8.44008376 -2.62845496 5.95409701 -4 3 C-2.68 2.01 -1.36 1.02 0 0 Z " fill="#EEAB1E" transform="translate(73,65)"/>
<path d="M0 0 C0.66 0.33 1.32 0.66 2 1 C0.02 4.96 -1.96 8.92 -4 13 C-4.33 13 -4.66 13 -5 13 C-5 11.35 -5 9.7 -5 8 C-4.34 8 -3.68 8 -3 8 C-2.87625 7.236875 -2.7525 6.47375 -2.625 5.6875 C-2 3 -2 3 0 0 Z " fill="#2F7EC3" transform="translate(162,281)"/>
<path d="M0 0 C2.97069541 2.54631035 4.4775751 5.42230149 6 9 C5.67 9.66 5.34 10.32 5 11 C4.67 10.01 4.34 9.02 4 8 C1.98491642 7.26676204 1.98491642 7.26676204 0 7 C0 4.69 0 2.38 0 0 Z " fill="#ECB021" transform="translate(85,63)"/>
<path d="M0 0 C0.66 0 1.32 0 2 0 C0.68938409 4.23429756 -0.94356259 8.07407404 -3 12 C-3.33 12 -3.66 12 -4 12 C-4 10.02 -4 8.04 -4 6 C-3.34 6 -2.68 6 -2 6 C-1.34 4.02 -0.68 2.04 0 0 Z " fill="#307EC7" transform="translate(223,293)"/>
<path d="M0 0 C0.33 0 0.66 0 1 0 C1.3125 2.75 1.3125 2.75 1 6 C-1.25 8.4375 -1.25 8.4375 -4 10 C-6.3125 9.75 -6.3125 9.75 -8 9 C-7.05125 8.62875 -6.1025 8.2575 -5.125 7.875 C-1.74446192 6.26004095 -1.74446192 6.26004095 -0.625 2.8125 C-0.41875 1.884375 -0.2125 0.95625 0 0 Z " fill="#A0936F" transform="translate(104,175)"/>
<path d="M0 0 C1 3 1 3 -0.25 6 C-1.69149811 8.47113961 -2.85630917 10.16255071 -5 12 C-4.52389341 7.00088076 -2.96837781 4.02167317 0 0 Z " fill="#FEE90F" transform="translate(93,127)"/>
<path d="M0 0 C3.3 1.65 6.6 3.3 10 5 C9.01 5.66 8.02 6.32 7 7 C7 6.34 7 5.68 7 5 C5.68 5.33 4.36 5.66 3 6 C0 2.25 0 2.25 0 0 Z " fill="#EFAF2C" transform="translate(46,94)"/>
<path d="M0 0 C0.99 0.33 1.98 0.66 3 1 C1.02 5.455 1.02 5.455 -1 10 C-1.33 10 -1.66 10 -2 10 C-2 7.69 -2 5.38 -2 3 C-1.34 3 -0.68 3 0 3 C0 2.01 0 1.02 0 0 Z " fill="#2C7CC9" transform="translate(245,315)"/>
<path d="M0 0 C1.0625 1.8125 1.0625 1.8125 2 4 C1.67 4.99 1.34 5.98 1 7 C-1.0625 7.6875 -1.0625 7.6875 -3 8 C-2.37240135 5.07120629 -1.41377341 2.63904371 0 0 Z " fill="#2781D3" transform="translate(138,296)"/>
<path d="M0 0 C0 0.66 0 1.32 0 2 C-0.66 2 -1.32 2 -2 2 C-2 2.66 -2 3.32 -2 4 C-2.99 4 -3.98 4 -5 4 C-5 5.32 -5 6.64 -5 8 C-5.66 8 -6.32 8 -7 8 C-6.40138258 5.64828869 -5.73075648 3.3140622 -5 1 C-3 0 -3 0 0 0 Z " fill="#317EC4" transform="translate(150,280)"/>
<path d="M0 0 C0.99 0 1.98 0 3 0 C1.84414715 3.91211733 0.64465038 6.8745041 -2 10 C-1.33333333 6.66666667 -0.66666667 3.33333333 0 0 Z " fill="#2D7CC8" transform="translate(211,315)"/>
<path d="M0 0 C1.125 3.75 1.125 3.75 0 6 C-0.66 6 -1.32 6 -2 6 C-2.33 6.99 -2.66 7.98 -3 9 C-3.33 8.34 -3.66 7.68 -4 7 C-3.22265625 5.2734375 -3.22265625 5.2734375 -2.0625 3.375 C-1.381875 2.26125 -0.70125 1.1475 0 0 Z " fill="#A19866" transform="translate(109,165)"/>
<path d="M0 0 C1.32 0.33 2.64 0.66 4 1 C2.625 2.5 2.625 2.5 1 4 C0.34 4 -0.32 4 -1 4 C-1.33 4.99 -1.66 5.98 -2 7 C-2.33 6.34 -2.66 5.68 -3 5 C-1.5625 2.375 -1.5625 2.375 0 0 Z " fill="#F2B413" transform="translate(164,67)"/>
<path d="M0 0 C4.29425875 1.07356469 4.74740471 1.5084773 7 5 C6.67 5.66 6.34 6.32 6 7 C4.02 4.69 2.04 2.38 0 0 Z " fill="#8B8B8D" transform="translate(84,248)"/>
</svg>
