<?xml version="1.0" encoding="UTF-8"?>
<svg version="1.1" xmlns="http://www.w3.org/2000/svg" width="360" height="360">
<path d="M0 0 C25.97977346 20.83515495 44.0338977 49.64129896 48.47265625 82.953125 C50.96189571 116.47020846 43.7106432 149.22045662 21.76953125 175.359375 C20.76986328 176.51179688 20.76986328 176.51179688 19.75 177.6875 C19.05261719 178.51765625 18.35523438 179.3478125 17.63671875 180.203125 C12.2254293 186.46984032 6.30598458 191.64935843 -0.25 196.6875 C-1.10207031 197.36683594 -1.95414063 198.04617188 -2.83203125 198.74609375 C-21.79039492 213.32726401 -45.51899457 220.60420161 -69.25 221.6875 C-70.01957031 221.72875 -70.78914062 221.77 -71.58203125 221.8125 C-102.5090932 222.65548636 -133.36680482 211.45188081 -156.25 190.6875 C-156.76272461 190.2239209 -157.27544922 189.7603418 -157.80371094 189.28271484 C-183.14408567 166.06545259 -196.21816277 134.11448544 -197.9375 100.125 C-198.05963782 97.31259473 -198.16043066 94.50121266 -198.25 91.6875 C-200.23 91.3575 -202.21 91.0275 -204.25 90.6875 C-204.25 90.0275 -204.25 89.3675 -204.25 88.6875 C-201.28 88.1925 -201.28 88.1925 -198.25 87.6875 C-197.20487588 83.61289714 -196.19977721 79.54687832 -195.35546875 75.42578125 C-188.97284049 44.36829476 -172.02287894 16.75137564 -146.125 -2 C-101.43205433 -31.18722982 -43.23778126 -33.54356054 0 0 Z " fill="#3AB3BC" transform="translate(254.25,81.3125)"/>
<path d="M0 0 C3.96 0 7.92 0 12 0 C12 1.32 12 2.64 12 4 C19.65403467 3.90790155 27.30774688 3.80061906 34.96142578 3.68261719 C37.56684499 3.64425918 40.1723184 3.60941855 42.77783203 3.578125 C46.51614803 3.53262249 50.25408865 3.47460374 53.9921875 3.4140625 C55.74847977 3.39673569 55.74847977 3.39673569 57.54025269 3.37905884 C58.62122223 3.35918915 59.70219177 3.33931946 60.81591797 3.31884766 C62.24821243 3.29886215 62.24821243 3.29886215 63.70944214 3.2784729 C66.19602647 3.21504068 66.19602647 3.21504068 68 1 C70.68839385 0.73008094 73.29141936 0.91262643 76 1 C76.495 1.99 76.495 1.99 77 3 C80.04581269 3.46954261 80.04581269 3.46954261 83.5625 3.625 C84.76003906 3.69976562 85.95757812 3.77453125 87.19140625 3.8515625 C88.11824219 3.90054688 89.04507813 3.94953125 90 4 C90.00546844 5.83257858 90.00546844 5.83257858 90.01104736 7.70217896 C90.04812861 19.26486469 90.10604392 30.82728734 90.18390274 42.38977242 C90.22326522 48.33293827 90.25550865 54.27595845 90.27099609 60.21923828 C90.28623676 65.96419155 90.32081307 71.708744 90.36830902 77.45351791 C90.3830467 79.6357053 90.3910366 81.81794993 90.39188385 84.00018692 C89.44936491 102.49419523 89.44936491 102.49419523 96 119 C96.04092937 121.33297433 96.04241723 123.66705225 96 126 C94.02 126.33 92.04 126.66 90 127 C90 129.31 90 131.62 90 134 C89.29617187 134.00410889 88.59234375 134.00821777 87.8671875 134.01245117 C73.61794345 134.15778044 61.33854662 134.87558661 48 140 C45.79751837 140.70602199 43.58923502 141.39425183 41.375 142.0625 C40.33730469 142.38089844 39.29960937 142.69929687 38.23046875 143.02734375 C30.98827024 145.20788478 23.73540351 147.37707486 16.375 149.125 C13.11390383 149.84534465 13.11390383 149.84534465 10.75 151.125 C9 152 9 152 5 152 C4.32678716 149.75194998 3.66165877 147.50147776 3 145.25 C2.62875 143.99703125 2.2575 142.7440625 1.875 141.453125 C1 138 1 138 1 134 C-2.96 134 -6.92 134 -11 134 C-10.99887207 132.89301758 -10.99774414 131.78603516 -10.99658203 130.64550781 C-10.60283894 102.7271105 -10.60283894 102.7271105 -17.26416016 75.88916016 C-18.38767786 73.00469434 -19.18434975 70.04633446 -20 67.0625 C-21.17112776 62.92155038 -22.34939951 58.78296713 -23.54296875 54.6484375 C-23.81431641 53.70605225 -24.08566406 52.76366699 -24.36523438 51.79272461 C-24.90284505 49.92593219 -25.44184968 48.05954051 -25.98242188 46.19360352 C-26.22927734 45.33436279 -26.47613281 44.47512207 -26.73046875 43.58984375 C-26.95114014 42.82534912 -27.17181152 42.06085449 -27.39916992 41.27319336 C-28.03600651 38.86377219 -28.53473676 36.44783013 -29 34 C-26.37605694 33.16320723 -23.75095616 32.33043058 -21.125 31.5 C-20.00544922 31.14228516 -20.00544922 31.14228516 -18.86328125 30.77734375 C-13.2265625 29 -13.2265625 29 -11 29 C-11 20.75 -11 12.5 -11 4 C-7.37 4 -3.74 4 0 4 C0 2.68 0 1.36 0 0 Z " fill="#FAFCFB" transform="translate(141,110)"/>
<path d="M0 0 C1.15234375 2.08984375 1.15234375 2.08984375 2 4 C8.47823829 3.93302379 14.95587194 3.8432268 21.43359375 3.73754883 C23.63729667 3.70429212 25.84108491 3.67626254 28.04492188 3.65356445 C31.21260955 3.62003262 34.37951469 3.56771664 37.546875 3.51171875 C39.02519806 3.50213387 39.02519806 3.50213387 40.53338623 3.49235535 C41.91436493 3.46266411 41.91436493 3.46266411 43.32324219 3.43237305 C44.1315448 3.42126999 44.93984741 3.41016693 45.77264404 3.39872742 C48.50642871 2.90934228 49.82350982 1.67550108 52 0 C54.6729445 -0.21326685 57.0926212 -0.28545631 59.75 -0.1875 C60.44738281 -0.17396484 61.14476562 -0.16042969 61.86328125 -0.14648438 C63.57585541 -0.1112945 65.28802941 -0.05749155 67 0 C67.495 2.475 67.495 2.475 68 5 C69.85625 4.938125 69.85625 4.938125 71.75 4.875 C74.98240068 4.88644213 77.38281448 4.90625158 80 7 C81.12744014 9.42833261 81.03047457 10.84320942 80.52001953 13.46948242 C79.81736598 18.23993923 79.8576421 22.92283374 79.8671875 27.73828125 C79.86582291 28.79629944 79.86445831 29.85431763 79.86305237 30.94439697 C79.86102331 34.40046291 79.867353 37.85644276 79.875 41.3125 C79.87621857 42.48763153 79.87743713 43.66276306 79.87869263 44.87350464 C79.89843071 61.10690613 80.05188201 77.33357114 80.4375 93.5625 C80.4570575 94.43266754 80.47661499 95.30283508 80.49676514 96.19937134 C80.553304 98.63440659 80.61682031 101.06913243 80.68359375 103.50390625 C80.70031631 104.2118634 80.71703888 104.91982056 80.73426819 105.64923096 C80.81597093 108.31910894 80.93387129 110.75964807 81.64477539 113.34350586 C81.76199951 113.89014893 81.87922363 114.43679199 82 115 C81.34 115.66 80.68 116.32 80 117 C77.55789433 110.08291832 76.57167739 103.99971928 76.65942383 96.68505859 C76.65898575 95.70824127 76.65854767 94.73142395 76.65809631 93.7250061 C76.66016747 90.53260513 76.68341903 87.34074544 76.70703125 84.1484375 C76.71263316 81.92070808 76.71690044 79.69297493 76.71989441 77.46524048 C76.73129629 71.62910588 76.7607232 65.79319867 76.79400635 59.95715332 C76.82480793 53.99099808 76.83842124 48.02480575 76.85351562 42.05859375 C76.88559752 30.37229646 76.93673719 18.68616721 77 7 C72.71 7 68.42 7 64 7 C63.505 5.515 63.505 5.515 63 4 C57.41499433 4.19898708 57.41499433 4.19898708 53 7 C50.70944214 7.24050903 50.70944214 7.24050903 47.81591797 7.22705078 C46.73494843 7.22689972 45.65397888 7.22674866 44.54025269 7.22659302 C43.36939117 7.21627045 42.19852966 7.20594788 40.9921875 7.1953125 C39.1985527 7.19106766 39.1985527 7.19106766 37.36868286 7.18673706 C33.53735481 7.17551305 29.70625778 7.15040431 25.875 7.125 C23.28255545 7.11497308 20.69010725 7.10584673 18.09765625 7.09765625 C11.73169158 7.07556646 5.36586229 7.04206706 -1 7 C-1 5.68 -1 4.36 -1 3 C-4.96 3 -8.92 3 -13 3 C-13 4.32 -13 5.64 -13 7 C-16.63 7 -20.26 7 -24 7 C-24 15.25 -24 23.5 -24 32 C-25.98 32 -27.96 32 -30 32 C-28.515 31.505 -28.515 31.505 -27 31 C-26.97494385 30.35973877 -26.9498877 29.71947754 -26.92407227 29.05981445 C-26.8076454 26.14386274 -26.68513133 23.2281971 -26.5625 20.3125 C-26.52318359 19.30509766 -26.48386719 18.29769531 -26.44335938 17.25976562 C-26.40146484 16.28330078 -26.35957031 15.30683594 -26.31640625 14.30078125 C-26.27974854 13.40528564 -26.24309082 12.50979004 -26.20532227 11.5871582 C-25.99938249 8.99221912 -25.56232178 6.53945316 -25 4 C-22.36 4 -19.72 4 -17 4 C-17 3.01 -17 2.02 -17 1 C-5.02477701 -2.96333003 -5.02477701 -2.96333003 0 0 Z " fill="#4EADA6" transform="translate(154,107)"/>
<path d="M0 0 C0 21.45 0 42.9 0 65 C-2.0688748 60.86225039 -3.43629857 56.83575638 -4.8125 52.4375 C-5.07603271 51.60049561 -5.33956543 50.76349121 -5.61108398 49.90112305 C-7.66011955 43.29990909 -9.45534448 36.65125555 -11.1640625 29.95507812 C-12.73071979 23.86647819 -14.53011024 17.87515765 -16.47680664 11.89770508 C-18 7.19049075 -18 7.19049075 -18 5 C-15.37605694 4.16320723 -12.75095616 3.33043058 -10.125 2.5 C-9.00544922 2.14228516 -9.00544922 2.14228516 -7.86328125 1.77734375 C-2.2265625 0 -2.2265625 0 0 0 Z " fill="#AFE0E4" transform="translate(130,139)"/>
<path d="M0 0 C20.79 0 41.58 0 63 0 C60.06242785 1.95838144 57.96006491 2.71458454 54.59765625 3.65625 C53.54255859 3.95660156 52.48746094 4.25695312 51.40039062 4.56640625 C50.29888672 4.87449219 49.19738281 5.18257812 48.0625 5.5 C45.8857056 6.11098516 43.7098795 6.72543332 41.53515625 7.34375 C40.569729 7.61380859 39.60430176 7.88386719 38.60961914 8.16210938 C36.24041005 8.92280968 34.21646583 9.89049309 32 11 C30.6397681 11.36969643 29.26539086 11.6902835 27.8828125 11.96484375 C26.72458984 12.20557617 26.72458984 12.20557617 25.54296875 12.45117188 C23.93925188 12.77372882 22.33508668 13.0940652 20.73046875 13.41210938 C16.03709138 14.39217403 12.2944976 15.8026696 8 18 C6.68 18 5.36 18 4 18 C3.32678716 15.75194998 2.66165877 13.50147776 2 11.25 C1.62875 9.99703125 1.2575 8.7440625 0.875 7.453125 C0 4 0 4 0 0 Z " fill="#B2E1E4" transform="translate(142,244)"/>
<path d="M0 0 C1.98 0 3.96 0 6 0 C4.67240788 8.55947551 2.44265243 16.700053 0 25 C-0.80297095 27.809375 -1.59135459 30.62267812 -2.375 33.4375 C-2.57867187 34.1689624 -2.78234375 34.9004248 -2.9921875 35.65405273 C-5.78006364 45.73765534 -8.38435521 55.87064123 -11 66 C-12.66611905 66.042721 -14.33382885 66.04063832 -16 66 C-16.33 65.67 -16.66 65.34 -17 65 C-16.52658639 59.51388334 -15.44115891 54.37536201 -13.92578125 49.08203125 C-13.7211879 48.35008041 -13.51659454 47.61812958 -13.30580139 46.86399841 C-12.64686411 44.51191367 -11.9798476 42.16221083 -11.3125 39.8125 C-10.85777134 38.19576855 -10.40350901 36.57890587 -9.94970703 34.96191406 C-8.64096851 30.30571012 -7.321756 25.65252264 -6 21 C-5.6508252 19.76878418 -5.30165039 18.53756836 -4.94189453 17.26904297 C-3.30678934 11.50914873 -1.66093278 5.75249888 0 0 Z " fill="#184E6E" transform="translate(266,143)"/>
<path d="M0 0 C0.99 0.495 0.99 0.495 2 1 C2 1.66 2 2.32 2 3 C2.5775 3.20625 3.155 3.4125 3.75 3.625 C6.82248739 5.50263118 8.01736733 7.99772767 10 11 C17.57123132 19.85001837 27.93655679 26.02681319 38 31.6875 C38.66 32.120625 39.32 32.55375 40 33 C40 33.66 40 34.32 40 35 C40.70769531 35.10441406 41.41539063 35.20882812 42.14453125 35.31640625 C45.35752231 36.08559016 47.79090911 37.35578348 50.6875 38.9375 C55.49943225 41.42684119 59.79043132 42.88279125 65.13671875 43.67578125 C67 44 67 44 68 45 C69.57441461 45.37319457 71.16020785 45.69897427 72.75 46 C73.61109375 46.165 74.4721875 46.33 75.359375 46.5 C76.23078125 46.665 77.1021875 46.83 78 47 C78.75321533 47.17112305 79.50643066 47.34224609 80.2824707 47.51855469 C94.46065532 50.03040269 111.22998515 49.16967483 125 45 C126.34660172 44.65214193 127.69433917 44.30866131 129.04296875 43.96875 C138.16036042 41.58408995 146.29685601 38.19442571 154.609375 33.76953125 C157.37700384 32.32513509 160.07899152 31.08701652 163 30 C163 29.34 163 28.68 163 28 C164.72526042 27.0234375 166.45052083 26.046875 168.17578125 25.0703125 C169.81982289 24.10571419 171.41400588 23.05732941 173 22 C173.99 22.33 174.98 22.66 176 23 C154.47333428 39.83202054 130.58619767 50.04589091 103 51 C102.23558594 51.03996094 101.47117187 51.07992187 100.68359375 51.12109375 C69.84846085 52.00806035 38.75787181 40.80261803 16 20 C2.77040537 7.43457248 2.77040537 7.43457248 0 3 C0 2.01 0 1.02 0 0 Z " fill="#499096" transform="translate(82,252)"/>
<path d="M0 0 C3.96 0 7.92 0 12 0 C12 1.32 12 2.64 12 4 C19.65403467 3.90790155 27.30774688 3.80061906 34.96142578 3.68261719 C37.56684499 3.64425918 40.1723184 3.60941855 42.77783203 3.578125 C46.51614803 3.53262249 50.25408865 3.47460374 53.9921875 3.4140625 C55.74847977 3.39673569 55.74847977 3.39673569 57.54025269 3.37905884 C58.62122223 3.35918915 59.70219177 3.33931946 60.81591797 3.31884766 C62.24821243 3.29886215 62.24821243 3.29886215 63.70944214 3.2784729 C66.19602647 3.21504068 66.19602647 3.21504068 68 1 C70.68839385 0.73008094 73.29141936 0.91262643 76 1 C76.495 1.99 76.495 1.99 77 3 C80.04581269 3.46954261 80.04581269 3.46954261 83.5625 3.625 C84.76003906 3.69976562 85.95757812 3.77453125 87.19140625 3.8515625 C88.11824219 3.90054688 89.04507813 3.94953125 90 4 C90 4.99 90 5.98 90 7 C56.67 7 23.34 7 -11 7 C-11 6.01 -11 5.02 -11 4 C-7.37 4 -3.74 4 0 4 C0 2.68 0 1.36 0 0 Z " fill="#D3C58A" transform="translate(141,110)"/>
<path d="M0 0 C0.66 0 1.32 0 2 0 C2.00364563 1.18413483 2.00729126 2.36826965 2.01104736 3.58828735 C2.04813604 14.7977903 2.10605923 26.00702205 2.18390274 37.21631813 C2.22325755 42.97788181 2.25550467 48.73929538 2.27099609 54.50097656 C2.28624191 60.07087164 2.32082703 65.64035372 2.36830902 71.21006393 C2.38304148 73.32526414 2.39103629 75.44052334 2.39188385 77.55577469 C1.50694232 95.76907588 1.50694232 95.76907588 8 112 C8.04092937 114.33297433 8.04241723 116.66705225 8 119 C5.03 119.495 5.03 119.495 2 120 C2 122.31 2 124.62 2 127 C-8.23 127 -18.46 127 -29 127 C-29 126.67 -29 126.34 -29 126 C-19.43 126 -9.86 126 0 126 C0 84.42 0 42.84 0 0 Z " fill="#DEFEFE" transform="translate(229,117)"/>
<path d="M0 0 C9.82734014 7.62200823 18.64018358 16.43278297 26.51245117 26.05444336 C26.01745117 27.04444336 26.01745117 27.04444336 25.51245117 28.05444336 C15.77650456 19.74233084 15.77650456 19.74233084 12.57495117 14.99194336 C8.91265146 9.76900457 3.7280006 6.59221051 -1.48754883 3.05444336 C-2.78186292 2.12060179 -4.07398073 1.18369772 -5.36254883 0.24194336 C-8.01850246 -1.61722419 -10.70381504 -3.29036358 -13.48754883 -4.94555664 C-14.09469727 -5.42637695 -14.7018457 -5.90719727 -15.32739258 -6.40258789 C-17.61381299 -8.03574533 -19.74455189 -9.00082106 -22.36254883 -10.00805664 C-23.68706055 -10.51852539 -23.68706055 -10.51852539 -25.03833008 -11.03930664 C-27.8364309 -12.07464857 -30.64519648 -13.03842291 -33.48754883 -13.94555664 C-34.19782227 -14.21625977 -34.9080957 -14.48696289 -35.63989258 -14.76586914 C-40.53720354 -16.57485921 -43.29502812 -16.86867143 -48.48754883 -15.94555664 C-49.78861572 -16.66243652 -49.78861572 -16.66243652 -51.1159668 -17.39379883 C-55.35453455 -19.34458353 -58.64800321 -19.34574405 -63.24536133 -19.27368164 C-64.48357132 -19.27087189 -64.48357132 -19.27087189 -65.74679565 -19.26800537 C-67.48317536 -19.26131127 -69.21954065 -19.24744964 -70.95581055 -19.22680664 C-73.61106414 -19.1955741 -76.26572319 -19.18582275 -78.92114258 -19.17993164 C-80.61255606 -19.17076344 -82.30396351 -19.16038825 -83.99536133 -19.14868164 C-84.78709747 -19.14443176 -85.57883362 -19.14018188 -86.39456177 -19.13580322 C-89.92086674 -19.09008982 -93.0936655 -18.89054863 -96.48754883 -17.94555664 C-96.81754883 -18.93555664 -97.14754883 -19.92555664 -97.48754883 -20.94555664 C-63.40232739 -27.61674075 -27.94355485 -20.90923874 0 0 Z " fill="#549BA1" transform="translate(252.487548828125,79.945556640625)"/>
<path d="M0 0 C21.12 0 42.24 0 64 0 C64 1.32 64 2.64 64 4 C42.88 4 21.76 4 0 4 C0 2.68 0 1.36 0 0 Z " fill="#43556C" transform="translate(161,224)"/>
<path d="M0 0 C21.12 0 42.24 0 64 0 C64 1.32 64 2.64 64 4 C42.88 4 21.76 4 0 4 C0 2.68 0 1.36 0 0 Z " fill="#495D72" transform="translate(161,179)"/>
<path d="M0 0 C21.12 0 42.24 0 64 0 C64 1.32 64 2.64 64 4 C42.88 4 21.76 4 0 4 C0 2.68 0 1.36 0 0 Z " fill="#42576B" transform="translate(161,134)"/>
<path d="M0 0 C3.67067075 3.28035056 6.01298944 7.04922179 8.375 11.3125 C8.96317505 12.37319702 8.96317505 12.37319702 9.56323242 13.45532227 C24.9105276 41.72367424 28.59610037 75.13022941 19.5859375 106.0859375 C19.39257812 106.71757812 19.19921875 107.34921875 19 108 C18.34 107.67 17.68 107.34 17 107 C17.43978919 103.4083883 17.98794983 100.04142245 19 96.5625 C21.22663786 88.63010261 21.1541648 80.74322728 21.125 72.5625 C21.12886719 71.48162109 21.13273437 70.40074219 21.13671875 69.28710938 C21.12057889 55.97979407 18.92773425 44.37313186 14 32 C13.09944532 29.73103489 12.2039459 27.46005926 11.3125 25.1875 C10.87550781 24.08792969 10.43851562 22.98835938 9.98828125 21.85546875 C9 19 9 19 9 16 C8.01 15.67 7.02 15.34 6 15 C0 5.54545455 0 5.54545455 0 0 Z " fill="#4C959C" transform="translate(279,108)"/>
<path d="M0 0 C2.16596942 3.89359481 1.81460187 5.59945414 1 10 C0.83783857 13.57863168 0.86008744 17.15645207 0.8671875 20.73828125 C0.86582291 21.79629944 0.86445831 22.85431763 0.86305237 23.94439697 C0.86102331 27.40046291 0.867353 30.85644276 0.875 34.3125 C0.87621857 35.48763153 0.87743713 36.66276306 0.87869263 37.87350464 C0.89843071 54.10690613 1.05188201 70.33357114 1.4375 86.5625 C1.4570575 87.43266754 1.47661499 88.30283508 1.49676514 89.19937134 C1.553304 91.63440659 1.61682031 94.06913243 1.68359375 96.50390625 C1.70031631 97.2118634 1.71703888 97.91982056 1.73426819 98.64923096 C1.81597093 101.31910894 1.93387129 103.75964807 2.64477539 106.34350586 C2.76199951 106.89014893 2.87922363 107.43679199 3 108 C2.01 108.99 2.01 108.99 1 110 C-2.93283221 100.66755544 -2.4192884 91.13301746 -2.36328125 81.2109375 C-2.36276134 79.3802592 -2.3632841 77.54958034 -2.36479187 75.71890259 C-2.3647025 71.89112961 -2.35435027 68.06356874 -2.33618164 64.23583984 C-2.3135929 59.37470207 -2.31293682 54.51387614 -2.31969929 49.65270042 C-2.3230733 45.87241946 -2.31634376 42.09220709 -2.30657005 38.31193924 C-2.30276929 36.5221251 -2.30154808 34.73230326 -2.3031559 32.94248581 C-2.3048281 21.80381914 -1.6730151 11.01729985 0 0 Z " fill="#52AAAC" transform="translate(233,114)"/>
<path d="M0 0 C-4.48188044 3.24236038 -8.79217554 5.24661384 -14 7.0625 C-21.04860452 9.55998487 -27.21468166 12.10473064 -33 17 C-36.33333333 19.66666667 -39.66666667 22.33333333 -43 25 C-44.3303125 26.11375 -44.3303125 26.11375 -45.6875 27.25 C-48 29 -48 29 -50 29 C-50 29.66 -50 30.32 -50 31 C-50.66 31 -51.32 31 -52 31 C-52.185625 31.70125 -52.37125 32.4025 -52.5625 33.125 C-54.2788305 36.55766099 -56.33576728 38.1720593 -59.34375 40.47265625 C-61.17674511 42.16298901 -62.0215057 43.72500074 -63 46 C-63.66 46 -64.32 46 -65 46 C-66.20628008 48.33214148 -67.1654738 50.49642139 -68 53 C-69.485 53.495 -69.485 53.495 -71 54 C-69.51774606 49.5779424 -67.12103547 46.1760095 -64.25 42.5625 C-63.76901855 41.95704346 -63.28803711 41.35158691 -62.79248047 40.7277832 C-50.94343469 26.12099737 -37.81159726 15.48319167 -21.25 6.625 C-20.46987549 6.20766602 -19.68975098 5.79033203 -18.88598633 5.36035156 C-5.20058747 -1.73352916 -5.20058747 -1.73352916 0 0 Z " fill="#4D9CA2" transform="translate(146,63)"/>
<path d="M0 0 C32.01 0 64.02 0 97 0 C97 0.66 97 1.32 97 2 C93.00172168 3.33275944 89.19492698 3.08382656 85.03051758 3.02172852 C84.11324387 3.01212097 83.19597015 3.00251343 82.25090027 2.99261475 C79.2153664 2.95960224 76.17997543 2.91927836 73.14453125 2.87890625 C71.04132086 2.85460734 68.93810516 2.83076367 66.83488464 2.80735779 C61.29625409 2.74449409 55.75771733 2.67543384 50.21917725 2.60510254 C44.5686877 2.53443978 38.91813159 2.46961049 33.26757812 2.40429688 C22.17831227 2.27525505 11.08913673 2.13966984 0 2 C0 1.34 0 0.68 0 0 Z " fill="#FAE8BF" transform="translate(132,117)"/>
<path d="M0 0 C0.33 0.66 0.66 1.32 1 2 C0.286316 3.63127772 -0.43338233 5.26019516 -1.18359375 6.875 C-2.09595854 9.24976767 -2.48075732 11.48909515 -2.875 14 C-3.49403826 17.46973546 -4.18614027 19.60414785 -6.4375 22.3125 C-10.30660839 27.05158542 -10.91433479 33.13034661 -12 39 C-12.66 39 -13.32 39 -14 39 C-13.97679687 39.81984375 -13.95359375 40.6396875 -13.9296875 41.484375 C-13.90261719 43.10085937 -13.90261719 43.10085937 -13.875 44.75 C-13.85179687 45.81734375 -13.82859375 46.8846875 -13.8046875 47.984375 C-13.99512313 50.92470106 -14.47329896 52.52361878 -16 55 C-15.34 55.66 -14.68 56.32 -14 57 C-13.77294922 59.43017578 -13.77294922 59.43017578 -13.8046875 62.4453125 C-13.81435547 64.05986328 -13.81435547 64.05986328 -13.82421875 65.70703125 C-13.84097656 66.83496094 -13.85773437 67.96289062 -13.875 69.125 C-13.88402344 70.26066406 -13.89304687 71.39632812 -13.90234375 72.56640625 C-13.92596902 75.37781299 -13.95890987 78.18880298 -14 81 C-14.66 81 -15.32 81 -16 81 C-17.03087881 75.71566323 -17.31611358 70.48895352 -17.5625 65.125 C-17.60568359 64.24585938 -17.64886719 63.36671875 -17.69335938 62.4609375 C-17.79869339 60.30744203 -17.89977649 58.15373936 -18 56 C-19.98 55.67 -21.96 55.34 -24 55 C-24 54.34 -24 53.68 -24 53 C-21.03 52.505 -21.03 52.505 -18 52 C-16.95487588 47.92539714 -15.94977721 43.85937832 -15.10546875 39.73828125 C-12.13630079 25.29975246 -7.27066252 12.80223285 0 0 Z " fill="#50989C" transform="translate(74,117)"/>
<path d="M0 0 C20.79 0 41.58 0 63 0 C63 0.99 63 1.98 63 3 C42.21 3 21.42 3 0 3 C0 2.01 0 1.02 0 0 Z " fill="#2C4159" transform="translate(161,202)"/>
<path d="M0 0 C20.79 0 41.58 0 63 0 C63 0.99 63 1.98 63 3 C42.21 3 21.42 3 0 3 C0 2.01 0 1.02 0 0 Z " fill="#2E4058" transform="translate(161,157)"/>
<path d="M0 0 C1.17868652 0.00016113 2.35737305 0.00032227 3.57177734 0.00048828 C11.96954347 0.11060392 19.93419314 0.65188855 27.625 4.375 C28.12 5.365 28.12 5.365 28.625 6.375 C26.5 7.0625 26.5 7.0625 23.625 7.375 C22.32199951 6.65231934 22.32199951 6.65231934 20.99267578 5.91503906 C16.75762318 3.97834834 13.45658979 3.9749373 8.8671875 4.046875 C7.62897751 4.04968475 7.62897751 4.04968475 6.36575317 4.05255127 C4.62937347 4.05924537 2.89300817 4.073107 1.15673828 4.09375 C-1.49851532 4.12498254 -4.15317437 4.13473389 -6.80859375 4.140625 C-8.50000723 4.1497932 -10.19141469 4.16016839 -11.8828125 4.171875 C-12.67454865 4.17612488 -13.46628479 4.18037476 -14.28201294 4.18475342 C-17.80831791 4.23046682 -20.98111667 4.43000801 -24.375 5.375 C-24.705 4.385 -25.035 3.395 -25.375 2.375 C-16.87319174 0.70083925 -8.66046887 -0.01110475 0 0 Z " fill="#4E9DA5" transform="translate(180.375,56.625)"/>
<path d="M0 0 C1.0725 -0.02578125 2.145 -0.0515625 3.25 -0.078125 C4.1575 0.03015625 5.065 0.1384375 6 0.25 C6.66 1.24 7.32 2.23 8 3.25 C4.04 3.25 0.08 3.25 -4 3.25 C-4 4.57 -4 5.89 -4 7.25 C-7.63 7.25 -11.26 7.25 -15 7.25 C-15 15.5 -15 23.75 -15 32.25 C-16.98 32.25 -18.96 32.25 -21 32.25 C-20.01 31.92 -19.02 31.59 -18 31.25 C-17.97494385 30.60973877 -17.9498877 29.96947754 -17.92407227 29.30981445 C-17.8076454 26.39386274 -17.68513133 23.4781971 -17.5625 20.5625 C-17.52318359 19.55509766 -17.48386719 18.54769531 -17.44335938 17.50976562 C-17.40146484 16.53330078 -17.35957031 15.55683594 -17.31640625 14.55078125 C-17.27974854 13.65528564 -17.24309082 12.75979004 -17.20532227 11.8371582 C-16.99938249 9.24221912 -16.56232178 6.78945316 -16 4.25 C-13.36 4.25 -10.72 4.25 -8 4.25 C-8 3.26 -8 2.27 -8 1.25 C-5.27976922 -0.11011539 -3.0338119 0.0437569 0 0 Z " fill="#4DABAC" transform="translate(145,106.75)"/>
<path d="M0 0 C3.96 0 7.92 0 12 0 C12.99 1.98 12.99 1.98 14 4 C17.63 4 21.26 4 25 4 C25.86626993 8.33134963 25.98617411 11.02868398 25.5625 15.3125 C25.40974609 16.91544922 25.40974609 16.91544922 25.25390625 18.55078125 C25.12822266 19.76314453 25.12822266 19.76314453 25 21 C24.67 21 24.34 21 24 21 C24 15.72 24 10.44 24 5 C19.71 5 15.42 5 11 5 C10.505 3.515 10.505 3.515 10 2 C4.41499433 2.19898708 4.41499433 2.19898708 0 5 C-2.29055786 5.24050903 -2.29055786 5.24050903 -5.18408203 5.22705078 C-6.26505157 5.22689972 -7.34602112 5.22674866 -8.45974731 5.22659302 C-9.63060883 5.21627045 -10.80147034 5.20594788 -12.0078125 5.1953125 C-13.20356903 5.1924826 -14.39932556 5.18965271 -15.63131714 5.18673706 C-19.46264519 5.17551305 -23.29374222 5.15040431 -27.125 5.125 C-29.71744455 5.11497308 -32.30989275 5.10584673 -34.90234375 5.09765625 C-41.26830842 5.07556646 -47.63413771 5.04206706 -54 5 C-53.67 4.34 -53.34 3.68 -53 3 C-28.25 3.495 -28.25 3.495 -3 4 C-3 3.34 -3 2.68 -3 2 C-2.01 2 -1.02 2 0 2 C0 1.34 0 0.68 0 0 Z " fill="#6AA795" transform="translate(207,109)"/>
<path d="M0 0 C1.485 0.99 1.485 0.99 3 2 C3.40843923 4.71203652 3.13336867 7.2437142 3 10 C3.66 10 4.32 10 5 10 C5.33 11.32 5.66 12.64 6 14 C13.1093942 12.12601156 13.1093942 12.12601156 20.125 9.9375 C22.64149865 9.11690261 25.03507777 8.57543914 27.625 8.0625 C31.17649162 7.31544166 33.14692704 6.26278201 36 4 C41.51795832 2.65415651 47.34682032 2.47277481 53 2 C49.69194237 4.20537176 46.44751589 5.24123106 42.6875 6.375 C41.62595703 6.700448 41.62595703 6.700448 40.54296875 7.0324707 C32.20746445 9.57312497 23.85416084 12.10689714 15.375 14.125 C12.11390383 14.84534465 12.11390383 14.84534465 9.75 16.125 C8 17 8 17 4 17 C3.32844651 14.73050898 2.6626037 12.4596039 2 10.1875 C1.443125 8.29064453 1.443125 8.29064453 0.875 6.35546875 C0 3 0 3 0 0 Z " fill="#9AE3E8" transform="translate(142,245)"/>
<path d="M0 0 C2.31282587 3.46923881 2.42478586 4.92205575 2 9 C0.875 10.875 0.875 10.875 -1 12 C-5.07794425 12.42478586 -6.53076119 12.31282587 -10 10 C-10.3984375 8.125 -10.3984375 8.125 -10.375 6 C-10.38273438 5.29875 -10.39046875 4.5975 -10.3984375 3.875 C-9.32739507 -1.16519969 -4.02979893 -0.36634536 0 0 Z " fill="#E5E0C8" transform="translate(147,220)"/>
<path d="M0 0 C0.80824219 0.11085937 1.61648437 0.22171875 2.44921875 0.3359375 C3.37154297 0.47902344 3.37154297 0.47902344 4.3125 0.625 C3.7118994 7.95232733 3.7118994 7.95232733 2.125 10.625 C-0.60853786 12.13315882 -2.62653917 12.0076201 -5.6875 11.625 C-7.625 10.5625 -7.625 10.5625 -8.6875 8.625 C-8.5625 5.0625 -8.5625 5.0625 -7.6875 1.625 C-4.33422361 -0.61051759 -3.78006343 -0.54783528 0 0 Z " fill="#EBDEC9" transform="translate(145.6875,130.375)"/>
<path d="M0 0 C3.71640139 -0.27028374 6.457201 -0.180933 10 1 C10.48148148 7.25925926 10.48148148 7.25925926 8.375 10.5 C6 12 6 12 2.875 11.875 C0 11 0 11 -2 9 C-2.34490322 4.94738713 -2.30163882 3.45245824 0 0 Z " fill="#F8E7D4" transform="translate(139,153)"/>
<path d="M0 0 C7.75 0.75 7.75 0.75 10 3 C9.53846154 9.46153846 9.53846154 9.46153846 7 12 C3.375 12.125 3.375 12.125 0 12 C-1.75282525 9.31920844 -2.01311136 8.13111361 -1.6875 4.875 C-1 2 -1 2 0 0 Z " fill="#E3DCC7" transform="translate(139,198)"/>
<path d="M0 0 C0.66 0.33 1.32 0.66 2 1 C2.36103152 7.3782235 2.36103152 7.3782235 0.875 9.9375 C-1.92162472 11.52225401 -3.8493196 11.45947423 -7 11 C-8.9375 9.375 -8.9375 9.375 -10 7 C-9.8125 3.8125 -9.8125 3.8125 -9 1 C-6.01405576 -0.49297212 -3.29146376 -0.11755228 0 0 Z " fill="#FCE9D4" transform="translate(147,176)"/>
<path d="M0 0 C0.99 0.33 1.98 0.66 3 1 C-25.73438956 23.46784716 -25.73438956 23.46784716 -41 22 C-38.7536419 19.7536419 -37.76476395 19.55620832 -34.75 18.8125 C-28.84666091 17.14547266 -23.61234176 14.43979722 -18.19921875 11.62109375 C-15.49900831 10.25285525 -12.82942571 9.06700669 -10 8 C-10 7.34 -10 6.68 -10 6 C-8.27473958 5.0234375 -6.54947917 4.046875 -4.82421875 3.0703125 C-3.18017711 2.10571419 -1.58599412 1.05732941 0 0 Z " fill="#49989E" transform="translate(255,274)"/>
<path d="M0 0 C0.66 0 1.32 0 2 0 C-1.85803831 16.71816602 -11.64611286 33.17274392 -24 45 C-24.66 44.67 -25.32 44.34 -26 44 C-25.04956626 42.66102417 -24.08940853 41.32894573 -23.125 40 C-22.32449219 38.88625 -22.32449219 38.88625 -21.5078125 37.75 C-20.76144531 36.88375 -20.76144531 36.88375 -20 36 C-19.34 36 -18.68 36 -18 36 C-17.72929687 35.27683594 -17.45859375 34.55367187 -17.1796875 33.80859375 C-16.02053352 31.0488861 -14.68197437 28.61577663 -13.125 26.0625 C-12.59390625 25.1859375 -12.0628125 24.309375 -11.515625 23.40625 C-10.36691168 21.58251958 -9.13829346 19.80881743 -7.875 18.0625 C-5.17141312 13.64664143 -3.63730399 8.89449385 -2 4 C-1.34 4 -0.68 4 0 4 C0 2.68 0 1.36 0 0 Z " fill="#49959B" transform="translate(295,217)"/>
<path d="M0 0 C2.01822917 0.06510417 4.03645833 0.13020833 6.0546875 0.1953125 C6.3846875 0.8553125 6.7146875 1.5153125 7.0546875 2.1953125 C10.10050019 2.66485511 10.10050019 2.66485511 13.6171875 2.8203125 C14.81472656 2.89507812 16.01226562 2.96984375 17.24609375 3.046875 C18.17292969 3.09585938 19.09976563 3.14484375 20.0546875 3.1953125 C20.0546875 4.1853125 20.0546875 5.1753125 20.0546875 6.1953125 C11.8046875 6.1953125 3.5546875 6.1953125 -4.9453125 6.1953125 C-3.48393248 0.34979242 -3.48393248 0.34979242 0 0 Z " fill="#ECBF73" transform="translate(210.9453125,110.8046875)"/>
<path d="M0 0 C2.00810938 3.01216408 2.68784766 5.15386662 3.5625 8.625 C4.22007736 12.10760949 4.22007736 12.10760949 6 15 C6.04092937 17.33297433 6.04241723 19.66705225 6 22 C4.02 22.33 2.04 22.66 0 23 C0 15.41 0 7.82 0 0 Z " fill="#A2DCDF" transform="translate(231,214)"/>
<path d="M0 0 C1.32 0 2.64 0 4 0 C4 0.66 4 1.32 4 2 C23.47 2 42.94 2 63 2 C63 2.33 63 2.66 63 3 C42.21 3 21.42 3 0 3 C0 2.01 0 1.02 0 0 Z " fill="#314452" transform="translate(161,180)"/>
<path d="M0 0 C1.4535072 2.7455136 2.51005903 5.3934976 3.375 8.375 C3.62765625 9.24382812 3.8803125 10.11265625 4.140625 11.0078125 C4.42421875 11.99523437 4.7078125 12.98265625 5 14 C5.34546875 15.17304688 5.6909375 16.34609375 6.046875 17.5546875 C6.40265625 18.77414063 6.7584375 19.99359375 7.125 21.25 C7.45757812 22.38953125 7.79015625 23.5290625 8.1328125 24.703125 C8.94610711 27.79510991 9.5307102 30.83947684 10 34 C9.67 33.34 9.34 32.68 9 32 C8.34 32 7.68 32 7 32 C6.35035977 30.10546779 5.70544885 28.20931351 5.0625 26.3125 C4.70285156 25.25675781 4.34320313 24.20101562 3.97265625 23.11328125 C3.12654982 20.40506108 2.52640813 17.78244297 2 15 C1.649375 13.906875 1.29875 12.81375 0.9375 11.6875 C-0.11449929 7.54963612 -0.14901292 4.24686823 0 0 Z " fill="#4DB1B6" transform="translate(115,156)"/>
<path d="M0 0 C0.99 0 1.98 0 3 0 C3 0.99 3 1.98 3 3 C-14.82 3 -32.64 3 -51 3 C-50.67 2.34 -50.34 1.68 -50 1 C-25.25 1.495 -25.25 1.495 0 2 C0 1.34 0 0.68 0 0 Z " fill="#73A484" transform="translate(204,111)"/>
<path d="M0 0 C0.99 0.33 1.98 0.66 3 1 C3 1.99 3 2.98 3 4 C3.66 4 4.32 4 5 4 C11.95918367 10.95918367 11.95918367 10.95918367 12.0625 16.125 C12.041875 17.07375 12.02125 18.0225 12 19 C7.87651285 15.27533026 5.52545661 11.69888161 3.1875 6.6875 C2.87619141 6.04232422 2.56488281 5.39714844 2.24414062 4.73242188 C1.48676288 3.15940656 0.74203942 1.58030874 0 0 Z " fill="#42A5AC" transform="translate(68,231)"/>
<path d="M0 0 C0.99 0.495 0.99 0.495 2 1 C2.62036829 3.40726643 3.12519745 5.74647254 3.5625 8.1875 C3.68818359 8.84814453 3.81386719 9.50878906 3.94335938 10.18945312 C4.68392461 14.11716301 5.35586966 18.0554685 6 22 C6.66 22 7.32 22 8 22 C8.66 24.64 9.32 27.28 10 30 C9.34 30 8.68 30 8 30 C-0.52576602 8.14937326 -0.52576602 8.14937326 0 0 Z " fill="#4A9297" transform="translate(59,199)"/>
<path d="M0 0 C0.598125 0.226875 1.19625 0.45375 1.8125 0.6875 C2.4375 3.5625 2.4375 3.5625 2.8125 6.6875 C2.1525 7.3475 1.4925 8.0075 0.8125 8.6875 C-1.8125 8.3125 -1.8125 8.3125 -4.1875 7.6875 C-4.875 5.375 -4.875 5.375 -5.1875 2.6875 C-3.60587179 0.1901923 -2.97595617 -0.4251366 0 0 Z " fill="#FBF8E2" transform="translate(144.1875,199.3125)"/>
<path d="M0 0 C0.94875 0.185625 1.8975 0.37125 2.875 0.5625 C4.875 3.5625 4.875 3.5625 4.875 6.5625 C0.915 6.5625 -3.045 6.5625 -7.125 6.5625 C-3.95602493 0.71208449 -3.95602493 0.71208449 0 0 Z " fill="#EBC075" transform="translate(147.125,110.4375)"/>
<path d="M0 0 C-0.66 0 -1.32 0 -2 0 C-2 0.66 -2 1.32 -2 2 C-5.3 2.66 -8.6 3.32 -12 4 C-11.67 8.95 -11.34 13.9 -11 19 C-12.77285431 15.45429137 -13.71229813 12.56675327 -14.625 8.75 C-15.01558594 7.13351563 -15.01558594 7.13351563 -15.4140625 5.484375 C-15.60742188 4.66453125 -15.80078125 3.8446875 -16 3 C-14.08802961 2.29954544 -12.17019565 1.615081 -10.25 0.9375 C-9.18265625 0.55464844 -8.1153125 0.17179688 -7.015625 -0.22265625 C-4.07719958 -0.98010011 -2.77651052 -1.07151741 0 0 Z " fill="#9AE4E9" transform="translate(128,141)"/>
<path d="M0 0 C6.625 -0.125 6.625 -0.125 10 1 C10.125 7.75 10.125 7.75 9 10 C8.34 10 7.68 10 7 10 C7 9.01 7 8.02 7 7 C5.68 7 4.36 7 3 7 C3 6.01 3 5.02 3 4 C3.99 4 4.98 4 6 4 C6.33 3.34 6.66 2.68 7 2 C4.6568787 2.25561323 2.32156597 2.59270772 0 3 C-0.33 3.66 -0.66 4.32 -1 5 C-0.67 3.35 -0.34 1.7 0 0 Z " fill="#E4D2C2" transform="translate(139,153)"/>
<path d="M0 0 C1.05960938 0.00676758 1.05960938 0.00676758 2.140625 0.01367188 C3.88545275 0.02546125 5.630237 0.04339676 7.375 0.0625 C7.705 1.7125 8.035 3.3625 8.375 5.0625 C11.015 5.0625 13.655 5.0625 16.375 5.0625 C16.375 5.3925 16.375 5.7225 16.375 6.0625 C14.91757537 6.14346803 13.45887193 6.20167774 12 6.25 C11.18789062 6.28480469 10.37578125 6.31960937 9.5390625 6.35546875 C8.82492188 6.25878906 8.11078125 6.16210938 7.375 6.0625 C6.715 5.0725 6.055 4.0825 5.375 3.0625 C2.48904054 2.47768879 2.48904054 2.47768879 -0.75 2.375 C-1.84570312 2.30925781 -2.94140625 2.24351563 -4.0703125 2.17578125 C-4.91335937 2.13839844 -5.75640625 2.10101563 -6.625 2.0625 C-6.625 2.7225 -6.625 3.3825 -6.625 4.0625 C-7.615 4.0625 -8.605 4.0625 -9.625 4.0625 C-9.625 3.0725 -9.625 2.0825 -9.625 1.0625 C-6.55966836 -0.47016582 -3.35745728 -0.04026471 0 0 Z " fill="#50ACA0" transform="translate(213.625,106.9375)"/>
<path d="M0 0 C0 0.66 0 1.32 0 2 C-3.98794348 3.69392647 -8.01408717 4.90590614 -12.1875 6.0625 C-16.70242348 7.24706359 -16.70242348 7.24706359 -21 9 C-20.8125 7.125 -20.8125 7.125 -20 5 C-16.42125201 3.29767663 -12.71188297 2.32700856 -8.875 1.375 C-7.84117187 1.11460937 -6.80734375 0.85421875 -5.7421875 0.5859375 C-3 0 -3 0 0 0 Z " fill="#50B4B9" transform="translate(171,255)"/>
<path d="M0 0 C4.70588235 0.70588235 4.70588235 0.70588235 6 2 C6.04063832 3.66617115 6.042721 5.33388095 6 7 C3.125 7.625 3.125 7.625 0 8 C-0.66 7.34 -1.32 6.68 -2 6 C-1.44444444 1.44444444 -1.44444444 1.44444444 0 0 Z " fill="#FDFAE4" transform="translate(141,222)"/>
<path d="M0 0 C1.485 0.99 1.485 0.99 3 2 C3.34057617 4.43017578 3.34057617 4.43017578 3.29296875 7.4453125 C3.28330078 8.52167969 3.27363281 9.59804687 3.26367188 10.70703125 C3.23853516 11.83496094 3.21339844 12.96289062 3.1875 14.125 C3.17396484 15.26066406 3.16042969 16.39632812 3.14648438 17.56640625 C3.11104319 20.37807387 3.06163517 23.18880417 3 26 C2.34 26 1.68 26 1 26 C0.03339326 20.92121881 -0.34252704 15.90097752 -0.625 10.75 C-0.6765625 9.9353125 -0.728125 9.120625 -0.78125 8.28125 C-1.12118676 2.24237351 -1.12118676 2.24237351 0 0 Z " fill="#4D969D" transform="translate(57,172)"/>
<path d="M0 0 C0.33 0 0.66 0 1 0 C1.45394757 7.86842447 0.44046541 16.33930189 -4 23 C-4.66 22.67 -5.32 22.34 -6 22 C-5.1913257 18.70738124 -4.37741268 15.41607984 -3.5625 12.125 C-3.21735352 10.71927734 -3.21735352 10.71927734 -2.86523438 9.28515625 C-2.64287109 8.38925781 -2.42050781 7.49335938 -2.19140625 6.5703125 C-1.88505249 5.32918701 -1.88505249 5.32918701 -1.57250977 4.06298828 C-1 2 -1 2 0 0 Z " fill="#44A1B4" transform="translate(261,184)"/>
<path d="M0 0 C2.33936818 2.12669835 3.80653848 4.06224856 5 7 C5 7.99 5 8.98 5 10 C5.66 10 6.32 10 7 10 C7.66 15.61 8.32 21.22 9 27 C6.72899157 23.59348736 5.67368273 20.18565301 4.5 16.3125 C4.28730469 15.62994141 4.07460937 14.94738281 3.85546875 14.24414062 C2.40472835 9.53145938 1.16168319 4.79194316 0 0 Z " fill="#9EE4E9" transform="translate(120,173)"/>
<path d="M0 0 C0.33 0.66 0.66 1.32 1 2 C0.28726847 3.62910063 -0.43180815 5.25573675 -1.18359375 6.8671875 C-2.10842009 9.283241 -2.48230041 11.57054634 -2.875 14.125 C-3.73149108 18.96860475 -5.17285252 20.97856778 -9 24 C-8.79117188 23.17048828 -8.79117188 23.17048828 -8.578125 22.32421875 C-8.18049642 20.7256444 -7.79578763 19.12381857 -7.421875 17.51953125 C-5.81407182 11.04158007 -3.53468684 5.65829316 0 0 Z " fill="#4AA0A4" transform="translate(74,117)"/>
<path d="M0 0 C0.66 0.33 1.32 0.66 2 1 C2 2.32 2 3.64 2 5 C0.02 5.99 -1.96 6.98 -4 8 C-4.66 6.68 -5.32 5.36 -6 4 C-4.68 4 -3.36 4 -2 4 C-2 3.34 -2 2.68 -2 2 C-3.65 2.33 -5.3 2.66 -7 3 C-7.33 4.65 -7.66 6.3 -8 8 C-8.66 7.67 -9.32 7.34 -10 7 C-9.625 4.0625 -9.625 4.0625 -9 1 C-6.01405576 -0.49297212 -3.29146376 -0.11755228 0 0 Z " fill="#D3BDAA" transform="translate(147,176)"/>
<path d="M0 0 C1.09570312 0.00902344 2.19140625 0.01804687 3.3203125 0.02734375 C4.16335937 0.03894531 5.00640625 0.05054687 5.875 0.0625 C6.205 0.7225 6.535 1.3825 6.875 2.0625 C2.915 2.0625 -1.045 2.0625 -5.125 2.0625 C-5.125 3.3825 -5.125 4.7025 -5.125 6.0625 C-8.425 6.0625 -11.725 6.0625 -15.125 6.0625 C-15.125 5.7325 -15.125 5.4025 -15.125 5.0625 C-12.815 5.0625 -10.505 5.0625 -8.125 5.0625 C-8.125 3.7425 -8.125 2.4225 -8.125 1.0625 C-5.36047967 -0.31976016 -3.0788637 -0.03275387 0 0 Z " fill="#76AC8E" transform="translate(146.125,107.9375)"/>
<path d="M0 0 C0.66 0 1.32 0 2 0 C2.36103152 6.3782235 2.36103152 6.3782235 0.875 8.9375 C-1.785027 10.44484863 -4.00206205 10.19986253 -7 10 C-7 9.34 -7 8.68 -7 8 C-5.02 7.67 -3.04 7.34 -1 7 C-1.639375 6.896875 -2.27875 6.79375 -2.9375 6.6875 C-3.618125 6.460625 -4.29875 6.23375 -5 6 C-5.33 5.01 -5.66 4.02 -6 3 C-5.38125 2.87625 -4.7625 2.7525 -4.125 2.625 C-1.80879168 2.12802644 -1.80879168 2.12802644 0 0 Z " fill="#E6D7C0" transform="translate(147,132)"/>
<path d="M0 0 C-5.98077485 3.12569907 -12.30070495 5.14111602 -19 6 C-19 5.34 -19 4.68 -19 4 C-12.37384327 0.90133798 -7.32627475 -0.47266289 0 0 Z " fill="#4FB3BA" transform="translate(193,250)"/>
<path d="M0 0 C3.64780666 4.1689219 6 9.44803736 6 15 C6.66 15 7.32 15 8 15 C8.33 17.97 8.66 20.94 9 24 C7.35 22.35 5.7 20.7 4 19 C4.66 18.67 5.32 18.34 6 18 C5.67 17.236875 5.34 16.47375 5 15.6875 C4 13 4 13 4 10 C3.34 10 2.68 10 2 10 C0.68373308 6.38026598 0 3.90432869 0 0 Z " fill="#40A8AE" transform="translate(63,211)"/>
<path d="M0 0 C0.66 0 1.32 0 2 0 C1.37798054 2.54242904 0.75248241 5.08391875 0.125 7.625 C-0.04902344 8.33785156 -0.22304688 9.05070313 -0.40234375 9.78515625 C-1.42854338 13.92796216 -2.58790729 17.96726678 -4 22 C-4.33 22 -4.66 22 -5 22 C-4.69121494 14.01790621 -3.06446761 7.36897561 0 0 Z " fill="#45A3B5" transform="translate(257,170)"/>
<path d="M0 0 C3 4 3 4 3 7 C3.66 6.67 4.32 6.34 5 6 C4.34 9.3 3.68 12.6 3 16 C2.67 16 2.34 16 2 16 C2 14.02 2 12.04 2 10 C0.68 10.33 -0.64 10.66 -2 11 C-1.34 7.37 -0.68 3.74 0 0 Z " fill="#185572" transform="translate(261,160)"/>
<path d="M0 0 C0 3.12900213 -0.42451317 4.37418862 -2 7 C-2.99 7.495 -2.99 7.495 -4 8 C-5.13350534 10.01669827 -5.13350534 10.01669827 -6 12 C-6.66 12 -7.32 12 -8 12 C-9.20628008 14.33214148 -10.1654738 16.49642139 -11 19 C-11.99 19.33 -12.98 19.66 -14 20 C-12.44553627 15.122521 -9.60965254 11.6654354 -6.4375 7.75 C-5.93025391 7.11320312 -5.42300781 6.47640625 -4.90039062 5.8203125 C-1.24503968 1.24503968 -1.24503968 1.24503968 0 0 Z " fill="#52969B" transform="translate(89,97)"/>
<path d="M0 0 C3.96 0 7.92 0 12 0 C12 0.99 12 1.98 12 3 C7.05 3 2.1 3 -3 3 C-2.01 2.67 -1.02 2.34 0 2 C0 1.34 0 0.68 0 0 Z " fill="#D2C58C" transform="translate(219,114)"/>
<path d="M0 0 C0.66 0 1.32 0 2 0 C1.48914188 6.43681228 0.27057103 11.95942424 -2 18 C-2.66 18 -3.32 18 -4 18 C-2.68 12.06 -1.36 6.12 0 0 Z " fill="#45A2B4" transform="translate(266,164)"/>
<path d="M0 0 C0.33 0 0.66 0 1 0 C1.76646851 7.81797878 -0.96083411 13.87966848 -4 21 C-5.00693162 17.87820592 -4.97289724 16.01030331 -4.00390625 12.890625 C-3.77509766 12.13652344 -3.54628906 11.38242188 -3.31054688 10.60546875 C-3.06369141 9.82816406 -2.81683594 9.05085937 -2.5625 8.25 C-2.31951172 7.45722656 -2.07652344 6.66445312 -1.82617188 5.84765625 C-1.22645805 3.89564654 -0.61441879 1.94743117 0 0 Z " fill="#1B5B77" transform="translate(254,186)"/>
<path d="M0 0 C0.66 0.33 1.32 0.66 2 1 C0.35 7.27 -1.3 13.54 -3 20 C-3.33 20 -3.66 20 -4 20 C-4.5644718 12.66186666 -2.55327104 6.83911885 0 0 Z " fill="#44A2B4" transform="translate(263,148)"/>
<path d="M0 0 C0.99 0.495 0.99 0.495 2 1 C2 1.99 2 2.98 2 4 C2.66 4 3.32 4 4 4 C4.38909985 5.45463481 4.76088029 6.91391207 5.125 8.375 C5.33382813 9.18710938 5.54265625 9.99921875 5.7578125 10.8359375 C5.83773438 11.55007812 5.91765625 12.26421875 6 13 C5.34 13.66 4.68 14.32 4 15 C3.32779649 13.06441401 2.66241923 11.12645628 2 9.1875 C1.62875 8.10855469 1.2575 7.02960938 0.875 5.91796875 C0 3 0 3 0 0 Z " fill="#4BA0A5" transform="translate(293,137)"/>
<path d="M0 0 C0.66 0 1.32 0 2 0 C0.50958227 3.79379058 -1.69062512 5.68343758 -5 8 C-5.66 8 -6.32 8 -7 8 C-7 7.34 -7 6.68 -7 6 C-7.66 5.67 -8.32 5.34 -9 5 C-6 3 -6 3 -2 3 C-1.67 2.34 -1.34 1.68 -1 1 C-0.67 0.67 -0.34 0.34 0 0 Z " fill="#419DA1" transform="translate(266,264)"/>
<path d="M0 0 C0.33 0 0.66 0 1 0 C1 1.65 1 3.3 1 5 C0.34 5 -0.32 5 -1 5 C-1.12375 6.134375 -1.2475 7.26875 -1.375 8.4375 C-1.58125 9.613125 -1.7875 10.78875 -2 12 C-2.99 12.495 -2.99 12.495 -4 13 C-5.0257259 8.58937864 -5.03684712 6.07369424 -3 2 C-2.34 2.33 -1.68 2.66 -1 3 C-0.67 2.01 -0.34 1.02 0 0 Z " fill="#41ADB6" transform="translate(294,216)"/>
<path d="M0 0 C3.96 0 7.92 0 12 0 C12 1.65 12 3.3 12 5 C11.34 4.67 10.68 4.34 10 4 C10 3.34 10 2.68 10 2 C4.8306511 2.40556131 4.8306511 2.40556131 0 4 C0 2.68 0 1.36 0 0 Z " fill="#B2C493" transform="translate(207,109)"/>
<path d="M0 0 C0.66 0 1.32 0 2 0 C1.67 2.64 1.34 5.28 1 8 C-0.1446875 8.1546875 -0.1446875 8.1546875 -1.3125 8.3125 C-4.17059424 9.04364039 -5.15742885 9.76951913 -7 12 C-6.45028435 8.15199046 -4.72962142 6.64690561 -2 4 C-0.76487921 1.86690808 -0.76487921 1.86690808 0 0 Z " fill="#3EADB4" transform="translate(85,104)"/>
<path d="M0 0 C0.33 0 0.66 0 1 0 C1.625 3.375 1.625 3.375 2 7 C1.34 7.66 0.68 8.32 0 9 C-0.69748583 10.31747324 -1.36959957 11.64914193 -2 13 C-3.98 12.34 -5.96 11.68 -8 11 C-8 10.34 -8 9.68 -8 9 C-6.02 8.67 -4.04 8.34 -2 8 C-1.34 5.36 -0.68 2.72 0 0 Z " fill="#7BA8AB" transform="translate(58,161)"/>
<path d="M0 0 C0 0.66 0 1.32 0 2 C0.66 2.33 1.32 2.66 2 3 C1.39671875 2.96519531 0.7934375 2.93039063 0.171875 2.89453125 C-4.92525488 2.6485551 -4.92525488 2.6485551 -9.5625 4.5 C-10.036875 4.995 -10.51125 5.49 -11 6 C-11.33 4.68 -11.66 3.36 -12 2 C-7.8803623 0.70756464 -4.33168317 -0.26252625 0 0 Z " fill="#FBF9EC" transform="translate(148,128)"/>
<path d="M0 0 C0.66 0.33 1.32 0.66 2 1 C1.34 5.62 0.68 10.24 0 15 C-0.66 14.67 -1.32 14.34 -2 14 C-2.21192221 8.80790596 -1.5912689 4.873261 0 0 Z " fill="#48A9B5" transform="translate(248,200)"/>
<path d="M0 0 C0.66 0.33 1.32 0.66 2 1 C1.67 2.32 1.34 3.64 1 5 C-1.8125 5.625 -1.8125 5.625 -5 6 C-5.99 5.34 -6.98 4.68 -8 4 C-7.67 3.01 -7.34 2.02 -7 1 C-5.515 1.99 -5.515 1.99 -4 3 C-2.68 2.01 -1.36 1.02 0 0 Z " fill="#EEDECA" transform="translate(146,159)"/>
<path d="M0 0 C2.72384822 5.05857527 4.67947366 9.28978955 3 15 C2.67 15 2.34 15 2 15 C1.34 11.7 0.68 8.4 0 5 C-0.66 5 -1.32 5 -2 5 C-1 2 -1 2 0 0 Z " fill="#55B5BC" transform="translate(125,190)"/>
<path d="M0 0 C0.99 0 1.98 0 3 0 C2.625 2.4375 2.625 2.4375 2 5 C-0.70879335 6.35439668 -3.00933268 6.06501451 -6 6 C-6 5.01 -6 4.02 -6 3 C-4.02 3.495 -4.02 3.495 -2 4 C-1.34 2.68 -0.68 1.36 0 0 Z " fill="#ECD6C4" transform="translate(146,181)"/>
<path d="M0 0 C0.33 0 0.66 0 1 0 C1.19392201 5.52677733 0.7479503 9.75614911 -1 15 C-2.125 13.4375 -2.125 13.4375 -3 11 C-2.1875 7.5 -2.1875 7.5 -1 4 C-0.65864073 2.66869885 -0.32074044 1.33641852 0 0 Z " fill="#43AEB5" transform="translate(299,193)"/>
<path d="M0 0 C1.65 0 3.3 0 5 0 C5.66 1.32 6.32 2.64 7 4 C4.69 4 2.38 4 0 4 C0 2.68 0 1.36 0 0 Z " fill="#F5BD62" transform="translate(145,112)"/>
<path d="M0 0 C-6.84592145 5.91238671 -6.84592145 5.91238671 -10 7 C-10.99 6.67 -11.98 6.34 -13 6 C-3.96638655 -1.98319328 -3.96638655 -1.98319328 0 0 Z " fill="#40ACB4" transform="translate(126,73)"/>
<path d="M0 0 C0.99 0.33 1.98 0.66 3 1 C3 1.99 3 2.98 3 4 C3.66 4 4.32 4 5 4 C5.99 6.97 6.98 9.94 8 13 C5.20557081 10.20557081 3.98752868 8.2983705 2.3125 4.8125 C1.65701172 3.46091797 1.65701172 3.46091797 0.98828125 2.08203125 C0.66214844 1.39496094 0.33601563 0.70789063 0 0 Z " fill="#4E9197" transform="translate(68,231)"/>
<path d="M0 0 C0.33 0 0.66 0 1 0 C1.33 2.64 1.66 5.28 2 8 C1.01 8.495 1.01 8.495 0 9 C-0.66 9.99 -1.32 10.98 -2 12 C-2.28571429 3.42857143 -2.28571429 3.42857143 0 0 Z " fill="#43ABB3" transform="translate(62,152)"/>
<path d="M0 0 C0.99 0.33 1.98 0.66 3 1 C3.33 2.98 3.66 4.96 4 7 C3.01 7.66 2.02 8.32 1 9 C0.67 6.03 0.34 3.06 0 0 Z " fill="#154567" transform="translate(262,159)"/>
<path d="M0 0 C7.42857143 -0.28571429 7.42857143 -0.28571429 11 2 C9.4375 3.1875 9.4375 3.1875 7 4 C3.25 2.625 3.25 2.625 0 1 C0 0.67 0 0.34 0 0 Z " fill="#44A6AB" transform="translate(198,60)"/>
<path d="M0 0 C1.32 0 2.64 0 4 0 C3.42415568 2.38564077 2.77772405 4.66682784 2 7 C1.34 7 0.68 7 0 7 C0 4.69 0 2.38 0 0 Z " fill="#C3F6F9" transform="translate(249,209)"/>
<path d="M0 0 C3 1 3 1 5 3 C5.99 2.67 6.98 2.34 8 2 C7.67 2.99 7.34 3.98 7 5 C5.125 5.875 5.125 5.875 3 6 C1.25 4.75 1.25 4.75 0 3 C0 2.01 0 1.02 0 0 Z " fill="#FAECD5" transform="translate(139,135)"/>
<path d="M0 0 C2.64 0.33 5.28 0.66 8 1 C8 1.66 8 2.32 8 3 C4.7 3 1.4 3 -2 3 C-1.34 2.01 -0.68 1.02 0 0 Z " fill="#3EB2B0" transform="translate(209,104)"/>
<path d="M0 0 C2 1 2 1 3 3 C-3.4 6.07692308 -3.4 6.07692308 -6.4375 5.6875 C-6.953125 5.460625 -7.46875 5.23375 -8 5 C-7.236875 4.731875 -6.47375 4.46375 -5.6875 4.1875 C-3.12619116 3.05575888 -1.80307062 2.08776599 0 0 Z " fill="#92DBDF" transform="translate(178,249)"/>
<path d="M0 0 C0.99 0 1.98 0 3 0 C3 1.98 3 3.96 3 6 C2.01 6.33 1.02 6.66 0 7 C0 4.69 0 2.38 0 0 Z " fill="#56AAAC" transform="translate(231,237)"/>
<path d="M0 0 C2.64 0 5.28 0 8 0 C8.33 0.66 8.66 1.32 9 2 C4.545 2.495 4.545 2.495 0 3 C0 2.01 0 1.02 0 0 Z " fill="#C3CB99" transform="translate(130,114)"/>
<path d="M0 0 C1.77007714 -0.08114106 3.54122098 -0.13925505 5.3125 -0.1875 C6.29863281 -0.22230469 7.28476563 -0.25710938 8.30078125 -0.29296875 C11 0 11 0 12.85546875 1.51171875 C13.23316406 2.00285156 13.61085937 2.49398438 14 3 C13.175 2.855625 12.35 2.71125 11.5 2.5625 C7.67313722 1.94746848 3.84783293 1.46439363 0 1 C0 0.67 0 0.34 0 0 Z " fill="#44ABB3" transform="translate(150,297)"/>
<path d="M0 0 C1.52453435 2.94017338 2.95157395 5.85472185 4 9 C3.67 9.99 3.34 10.98 3 12 C2.67 10.68 2.34 9.36 2 8 C1.34 8 0.68 8 0 8 C0 5.36 0 2.72 0 0 Z " fill="#61BDC2" transform="translate(115,156)"/>
<path d="M0 0 C1.65 0 3.3 0 5 0 C5 0.99 5 1.98 5 3 C3.35 3 1.7 3 0 3 C-0.33 3.66 -0.66 4.32 -1 5 C-0.67 3.35 -0.34 1.7 0 0 Z " fill="#3FA3B3" transform="translate(266,140)"/>
<path d="M0 0 C0.66 0.33 1.32 0.66 2 1 C1.01 2.485 1.01 2.485 0 4 C-0.66 4 -1.32 4 -2 4 C-2.33 4.99 -2.66 5.98 -3 7 C-3.99 6.01 -4.98 5.02 -6 4 C-5.38125 3.71125 -4.7625 3.4225 -4.125 3.125 C-1.86674235 2.06279958 -1.86674235 2.06279958 0 0 Z " fill="#BCA08F" transform="translate(147,132)"/>
<path d="M0 0 C0.66 0 1.32 0 2 0 C2.96070434 2.88211302 3.10581883 4.69850044 3.0625 7.6875 C3.05347656 8.49574219 3.04445312 9.30398437 3.03515625 10.13671875 C3.02355469 10.75160156 3.01195312 11.36648437 3 12 C2.67 12 2.34 12 2 12 C1.855625 10.948125 1.71125 9.89625 1.5625 8.8125 C1.12473034 5.84539451 0.62195134 2.93205634 0 0 Z " fill="#4BB3BA" transform="translate(235,224)"/>
<path d="M0 0 C0.99 0.33 1.98 0.66 3 1 C3.6875 3.0625 3.6875 3.0625 4 5 C2.68 5 1.36 5 0 5 C0 3.35 0 1.7 0 0 Z " fill="#FEFCED" transform="translate(142,202)"/>
<path d="M0 0 C2.83027381 2.83027381 3.96618857 4.24068571 5 8 C4.01 9.485 4.01 9.485 3 11 C2.01 7.37 1.02 3.74 0 0 Z " fill="#8EDADE" transform="translate(120,173)"/>
<path d="M0 0 C0.33 0.99 0.66 1.98 1 3 C0.34 3 -0.32 3 -1 3 C-1.33 3.99 -1.66 4.98 -2 6 C-3.32 5.34 -4.64 4.68 -6 4 C-5.67 3.34 -5.34 2.68 -5 2 C-3.67696283 1.6278958 -2.34262065 1.29369827 -1 1 C-0.67 0.67 -0.34 0.34 0 0 Z " fill="#C09C8A" transform="translate(147,155)"/>
<path d="M0 0 C-0.66 0 -1.32 0 -2 0 C-2 0.66 -2 1.32 -2 2 C-4.64 2 -7.28 2 -10 2 C-6.80505194 -1.19494806 -4.22040044 -1.35655728 0 0 Z " fill="#91DBE2" transform="translate(128,141)"/>
<path d="M0 0 C0 0.99 0 1.98 0 3 C-1.98 3 -3.96 3 -6 3 C-6.33 2.34 -6.66 1.68 -7 1 C-4.53721199 -0.231394 -2.7204945 -0.07159196 0 0 Z " fill="#F8BB5F" transform="translate(216,112)"/>
<path d="M0 0 C0.99 0.495 0.99 0.495 2 1 C2 1.66 2 2.32 2 3 C3.32 3.66 4.64 4.32 6 5 C6 5.99 6 6.98 6 8 C1.3125 4.38671875 1.3125 4.38671875 0 3 C0 2.01 0 1.02 0 0 Z " fill="#3C8993" transform="translate(82,252)"/>
<path d="M0 0 C2.97 0 5.94 0 9 0 C9.33 1.65 9.66 3.3 10 5 C9.46375 4.525625 8.9275 4.05125 8.375 3.5625 C5.57157164 1.71813924 3.30379742 1.37543153 0 1 C0 0.67 0 0.34 0 0 Z " fill="#4BACAE" transform="translate(132,245)"/>
</svg>
